<?xml version="1.0" encoding="utf-8"?>
<!-- Generator: Adobe Illustrator 22.0.0, SVG Export Plug-In . SVG Version: 6.00 Build 0)  -->
<svg version="1.1" id="Layer_1" xmlns="http://www.w3.org/2000/svg" xmlns:xlink="http://www.w3.org/1999/xlink" x="0px" y="0px"
	 viewBox="0 0 500 500" style="enable-background:new 0 0 500 500;" xml:space="preserve">
<style type="text/css">
	.st0{fill:#FDDF7F;}
	.st1{fill:#ECF4F7;}
	.st2{fill:#83E1E5;}
	.st3{fill:#1C1D21;}
	.st4{fill:#AAB1BA;}
</style>
<g>
	<circle class="st0" cx="454.164" cy="168.348" r="40.836"/>
</g>
<g>
	<path class="st0" d="M362.188,269.5l0.188,12.274c0.114,7.433,6.171,13.398,13.605,13.398c7.434,0,13.491-5.966,13.605-13.398
		l0.188-12.274H362.188z"/>
</g>
<g>
	<path class="st2" d="M361.52,225.859l0.668,43.641h27.586l0.831-54.297C381.612,220.444,371.767,224.06,361.52,225.859z"/>
</g>
<g>
	<path class="st2" d="M413.329,168.348c-2.242,1.116-4.533,2.116-6.865,2.999c-9.838,3.724-20.943,1.402-28.494-5.922
		c-20.965-20.333-67.966-65.919-94.237-91.399L263.93,93.829l79.894,82.378h-44.218c-11.533,0-22.853-3.109-32.768-9h0
		c-0.738-0.438-1.482-0.863-2.231-1.274v61.253h81.695c20.482,0,40.321-7.145,56.101-20.202l18.344-15.181v0
		C416.078,185.164,413.329,177.08,413.329,168.348z"/>
</g>
<g>
	<path class="st0" d="M18.804,176.207C11.18,176.207,5,182.387,5,190.01c0,6.966,5.19,12.84,12.102,13.698l22.053,2.738v-30.241
		H18.804z"/>
</g>
<g>
	<path class="st4" d="M188.131,167.304L188.131,167.304c-9.751,5.826-20.898,8.903-32.258,8.903H39.156v30.241l160.428,19.922
		c4.381,0.544,8.79,0.817,13.204,0.817h51.817v-61.253C240.739,152.807,211.622,153.268,188.131,167.304z"/>
</g>
<g>
	<path class="st4" d="M264.606,433.82V227.186h-31.607v91.217c0,5.108-0.517,10.204-1.544,15.208l-24.573,119.738
		C202.468,474.856,218.897,495,240.853,495h23.753V433.82z"/>
</g>
<g>
	<circle class="st0" cx="454.164" cy="454.164" r="40.836"/>
</g>
<g>
	<path class="st0" d="M415.808,468.146h-23.78l0.19,12.405c0.121,7.944-6.285,14.449-14.23,14.449h76.176
		C436.526,495,421.516,483.81,415.808,468.146z"/>
</g>
<g>
	<rect x="232.999" y="227.186" class="st0" width="31.607" height="30.587"/>
</g>
<g>
	<path class="st0" d="M389.984,334.581l-0.398-26.011c-0.114-7.433-6.171-13.398-13.605-13.398c-7.434,0-13.491,5.966-13.605,13.398
		l-0.398,26.011H389.984z"/>
</g>
<g>
	<path class="st2" d="M389.984,334.581h-28.007l-1.608,105.047c-8.284-3.788-17.348-5.808-26.613-5.808h-69.151V495h109.367h4.015
		c7.945,0,14.352-6.505,14.23-14.449L389.984,334.581z"/>
</g>
<g>
	<path class="st0" d="M283.733,74.026l-18.674-18.111c-5.336-5.175-13.838-5.11-19.094,0.146
		c-5.256,5.256-5.321,13.758-0.146,19.094l18.111,18.674L283.733,74.026z"/>
</g>
<path class="st3" d="M272.811,15.975c0-2.761,2.238-5,5-5h5.975V5c0-2.761,2.238-5,5-5s5,2.239,5,5v5.975h5.975c2.762,0,5,2.239,5,5
	s-2.238,5-5,5h-5.975v5.975c0,2.761-2.238,5-5,5s-5-2.239-5-5v-5.975h-5.975C275.049,20.975,272.811,18.736,272.811,15.975z
	 M372.042,88.927h5.975v5.975c0,2.761,2.238,5,5,5s5-2.239,5-5v-5.975h5.975c2.762,0,5-2.239,5-5s-2.238-5-5-5h-5.975v-5.974
	c0-2.761-2.238-5-5-5s-5,2.239-5,5v5.974h-5.975c-2.762,0-5,2.239-5,5S369.28,88.927,372.042,88.927z M183.579,88.927h5.974v5.975
	c0,2.761,2.238,5,5,5s5-2.239,5-5v-5.975h5.975c2.762,0,5-2.239,5-5s-2.238-5-5-5h-5.975v-5.974c0-2.761-2.238-5-5-5s-5,2.239-5,5
	v5.974h-5.974c-2.762,0-5,2.239-5,5S180.817,88.927,183.579,88.927z M500,454.165C500,479.438,479.438,500,454.164,500h-76.176
	h-4.016h-91.987c-2.762,0-5-2.239-5-5s2.238-5,5-5h75.105c-0.042-0.076-0.077-0.155-0.118-0.232
	c-0.058-0.11-0.113-0.221-0.169-0.332c-0.225-0.444-0.433-0.895-0.622-1.354c-0.029-0.071-0.063-0.14-0.091-0.212
	c-0.205-0.516-0.383-1.042-0.542-1.575c-0.036-0.119-0.068-0.239-0.101-0.359c-0.141-0.509-0.266-1.022-0.364-1.543
	c-0.008-0.042-0.019-0.082-0.026-0.123c-0.101-0.553-0.171-1.113-0.224-1.678c-0.012-0.132-0.022-0.264-0.032-0.396
	c-0.042-0.571-0.067-1.144-0.058-1.723l0.574-37.563c-6.892-2.716-14.129-4.091-21.562-4.091h-33.424c-2.762,0-5-2.239-5-5
	s2.238-5,5-5h33.424c7.447,0,14.726,1.18,21.724,3.514l1.497-97.753c0,0,0,0,0,0c0,0,0,0,0,0l0.399-26.087
	c0.08-5.25,2.384-9.978,5.986-13.322c-3.602-3.344-5.907-8.072-5.987-13.322l-0.769-50.262c-3.412,0.383-6.851,0.598-10.306,0.598
	h-76.694V495c0,2.761-2.238,5-5,5h-23.754h-106.52c-2.762,0-5-2.239-5-5s2.238-5,5-5h80.186c-1.576-1.402-3.056-2.935-4.414-4.6
	c-7.568-9.279-10.527-21.327-8.12-33.057l24.573-119.738c0.956-4.665,1.441-9.443,1.441-14.203v-86.217h-15.21
	c-4.604,0-9.255-0.288-13.821-0.854L38.54,211.409l-22.054-2.738C7.088,207.504,0,199.481,0,190.01
	c0-10.368,8.436-18.803,18.804-18.803h20.353h116.717c10.452,0,20.72-2.834,29.692-8.195c24.864-14.856,56.075-15.417,81.45-1.461
	c1.598,0.879,2.591,2.558,2.591,4.381v27.607c0,2.761-2.238,5-5,5s-5-2.239-5-5v-24.583c-21.782-10.837-47.922-9.9-68.911,2.639
	c-10.523,6.288-22.565,9.611-34.822,9.611H44.156v20.823L200.2,221.407c4.159,0.517,8.395,0.778,12.589,0.778h20.21h31.607h81.694
	c10.607,0,21.063-2.061,30.802-5.952c0.252-0.101,0.508-0.194,0.759-0.297c0.656-0.27,1.303-0.562,1.953-0.848
	c0.493-0.218,0.989-0.428,1.478-0.656c0.439-0.204,0.871-0.424,1.307-0.636c0.692-0.338,1.386-0.673,2.071-1.031
	c0.272-0.142,0.54-0.294,0.811-0.438c0.828-0.444,1.654-0.895,2.47-1.368c3.946-2.287,7.72-4.895,11.264-7.827l14.963-12.382
	c-0.094-0.167-0.179-0.339-0.271-0.508c-0.034-0.063-0.067-0.126-0.101-0.189c-0.31-0.573-0.606-1.152-0.89-1.736
	c-0.043-0.088-0.085-0.176-0.127-0.264c-0.273-0.572-0.534-1.148-0.783-1.729c-0.04-0.094-0.08-0.187-0.12-0.281
	c-0.249-0.592-0.484-1.188-0.707-1.789c-0.031-0.084-0.063-0.167-0.094-0.251c-0.235-0.647-0.457-1.299-0.663-1.955
	c-0.012-0.037-0.025-0.074-0.036-0.111c-0.627-2.02-1.12-4.082-1.461-6.179c-0.229,0.09-0.46,0.178-0.69,0.265
	c-11.588,4.386-24.833,1.635-33.746-7.009l-90.702-87.97l-6.419,6.419l-6.419,6.42l76.465,78.843l21.742,22.418
	c1.923,1.982,1.874,5.147-0.107,7.07c-0.972,0.942-2.228,1.411-3.481,1.411c-1.305,0-2.608-0.508-3.589-1.519l-20.269-20.899
	h-42.102c-6.095,0-12.177-0.81-18.077-2.408c-2.666-0.722-4.241-3.468-3.52-6.133c0.723-2.665,3.471-4.241,6.133-3.519
	c5.049,1.367,10.252,2.061,15.464,2.061h32.403L260.341,97.31l-18.111-18.674c-7.035-7.253-6.945-18.967,0.2-26.111
	c7.143-7.146,18.857-7.234,26.11-0.2l18.675,18.111c0.001,0.001,0.003,0.004,0.004,0.005l94.232,91.394
	c6.142,5.957,15.266,7.853,23.242,4.835c1.267-0.48,2.521-1.01,3.763-1.564c1.67-23.765,21.525-42.594,45.708-42.594
	c25.274,0,45.836,20.562,45.836,45.836s-20.562,45.835-45.836,45.835c-13.55,0-25.741-5.915-34.14-15.294l-14.436,11.946
	c-3.188,2.639-6.542,5.045-10.028,7.22l-0.976,63.795c-0.081,5.25-2.386,9.978-5.987,13.322c3.602,3.344,5.907,8.072,5.987,13.322
	l0.399,26.085c0,0.001,0,0.002,0,0.002c0,0,0,0.001,0,0.002l1.967,128.563h12.267c-0.58-2.906-0.889-5.907-0.889-8.981
	c0-25.274,20.562-45.836,45.835-45.836C479.438,408.329,500,428.891,500,454.165z M249.407,71.674l14.577,15.029l12.623-12.623
	l-15.029-14.576c-1.66-1.61-3.826-2.414-5.991-2.414c-2.209,0-4.417,0.836-6.086,2.505
	C246.195,62.901,246.154,68.319,249.407,71.674z M418.329,168.348c0,0.821,0.038,1.636,0.093,2.449
	c0.015,0.209,0.03,0.418,0.048,0.627c0.068,0.793,0.152,1.583,0.272,2.365c0.012,0.08,0.029,0.157,0.042,0.236
	c0.113,0.709,0.253,1.412,0.408,2.111c0.054,0.241,0.108,0.482,0.167,0.722c0.177,0.725,0.37,1.445,0.592,2.156
	c0.059,0.188,0.127,0.371,0.189,0.558c0.188,0.568,0.39,1.13,0.606,1.688c0.098,0.251,0.194,0.502,0.297,0.75
	c0.276,0.668,0.57,1.329,0.888,1.98c0.105,0.215,0.218,0.425,0.327,0.638c0.271,0.528,0.555,1.05,0.853,1.566
	c0.114,0.198,0.224,0.399,0.342,0.594c0.381,0.632,0.785,1.252,1.207,1.863c6.47,9.373,17.28,15.531,29.506,15.531
	c19.76,0,35.836-16.076,35.836-35.835c0-19.76-16.076-35.836-35.836-35.836S418.329,148.588,418.329,168.348z M17.719,198.747
	l16.438,2.041v-19.581H18.804c-4.854,0-8.804,3.949-8.804,8.803C10,194.445,13.318,198.201,17.719,198.747z M237.999,232.186v20.587
	h21.607v-20.587H237.999z M259.606,490V262.773h-21.607v55.629c0,5.433-0.554,10.888-1.646,16.212l-24.574,119.739
	c-1.8,8.773,0.414,17.785,6.074,24.726c5.66,6.94,14.043,10.92,22.999,10.92H259.606z M384.565,487.246
	c1.749-1.776,2.691-4.126,2.653-6.619l-2.158-141.046h-18.159l-2.159,141.046c-0.005,0.312,0.006,0.621,0.031,0.927
	c0.179,2.144,1.092,4.137,2.622,5.691c1.749,1.776,4.085,2.754,6.577,2.754h4.016C380.481,490,382.817,489.022,384.565,487.246z
	 M384.907,329.581l-0.32-20.934c-0.072-4.673-3.933-8.475-8.606-8.475s-8.534,3.801-8.605,8.474l-0.32,20.935H384.907z
	 M384.587,281.697l0.11-7.197h-17.433l0.11,7.197c0.072,4.673,3.933,8.475,8.606,8.475S384.515,286.37,384.587,281.697z
	 M385.121,223.681c-5.948,2.739-12.146,4.838-18.538,6.266l0.528,34.553h17.739l0.626-40.979c-0.076,0.035-0.152,0.067-0.228,0.103
	C385.206,223.643,385.163,223.661,385.121,223.681z M425.636,490c-2.069-1.651-3.994-3.474-5.749-5.453
	c-0.065-0.073-0.128-0.149-0.193-0.222c-0.486-0.555-0.959-1.122-1.419-1.7c-0.112-0.141-0.224-0.283-0.334-0.426
	c-0.432-0.556-0.85-1.122-1.255-1.698c-0.088-0.125-0.179-0.248-0.266-0.374c-0.992-1.438-1.904-2.934-2.729-4.483
	c-0.025-0.048-0.049-0.096-0.074-0.144c-0.389-0.735-0.755-1.484-1.104-2.242c-0.018-0.038-0.038-0.074-0.056-0.113h-15.351
	l0.11,7.263l0.001,0.065l0,0v0c0.009,0.579-0.017,1.153-0.058,1.723c-0.009,0.132-0.02,0.263-0.032,0.395
	c-0.053,0.565-0.123,1.126-0.224,1.679c-0.008,0.041-0.019,0.081-0.026,0.122c-0.099,0.521-0.223,1.035-0.364,1.543
	c-0.033,0.12-0.065,0.24-0.101,0.358c-0.159,0.533-0.337,1.06-0.542,1.576c-0.028,0.071-0.061,0.139-0.09,0.209
	c-0.189,0.46-0.398,0.911-0.623,1.355c-0.056,0.111-0.111,0.223-0.169,0.333c-0.041,0.076-0.076,0.155-0.117,0.231H425.636z
	 M490,454.165c0-19.76-16.076-35.836-35.836-35.836s-35.835,16.076-35.835,35.836c0,4.266,0.752,8.359,2.126,12.157
	c0.015,0.039,0.037,0.073,0.051,0.113c0.319,0.876,0.671,1.734,1.054,2.574c0.004,0.009,0.008,0.017,0.012,0.025
	c0.758,1.66,1.638,3.243,2.623,4.745c0.021,0.032,0.041,0.064,0.062,0.096c0.482,0.729,0.99,1.437,1.521,2.125
	c0.039,0.05,0.078,0.099,0.117,0.149c6.072,7.783,15.212,12.858,25.249,13.714c0.161,0.014,0.322,0.026,0.483,0.037
	c0.84,0.06,1.685,0.1,2.536,0.1C473.924,490,490,473.924,490,454.165z M281.985,438.82h3.348c2.762,0,5-2.239,5-5s-2.238-5-5-5
	h-3.348c-2.762,0-5,2.239-5,5S279.224,438.82,281.985,438.82z M264.606,201.447c-2.762,0-5,2.239-5,5v5.445c0,2.761,2.238,5,5,5
	s5-2.239,5-5v-5.445C269.606,203.686,267.368,201.447,264.606,201.447z M115.667,490H109c-2.762,0-5,2.239-5,5s2.238,5,5,5h6.667
	c2.762,0,5-2.239,5-5S118.429,490,115.667,490z"/>
</svg>
