<svg id="Layer_1" data-name="Layer 1" xmlns="http://www.w3.org/2000/svg" viewBox="0 0 512 512"><defs><style>.cls-1{fill:#ffefd6;}.cls-2{fill:#3d3c3c;}.cls-3{fill:#e2a379;}.cls-4{fill:#333;}.cls-5{fill:#f4b382;}.cls-6{fill:#b3233b;}.cls-7{fill:#d6876b;}.cls-8{fill:#cc785e;}.cls-9{fill:#602f0f;}.cls-10{fill:#4c230c;}</style></defs><title>awkward pose</title><path class="cls-1" d="M7.92,256C7.92,119,119,7.92,256,7.92S504.08,119,504.08,256,393,504.08,256,504.08,7.92,393,7.92,256Z"/><path class="cls-2" d="M254.92,249.75c-13.55,3.14-22.23,9.49-26.84,16.78-2.77,4.39-5.09,11.89-4,18.68,1.5,9.38,7.88,13,7.88,13s35.08,6.33,34.08-.85c-.81-5.88-1.47-11.25-2-16C263.38,275.87,254.92,249.75,254.92,249.75Z"/><path class="cls-3" d="M255.58,398.13c-3.25-2.29-2.42-12-1.67-19.21.21-2-1.08-6.48.33-8.5,2.33-3.33,5.49-2.71,6-4.25,6.27-18.28,8.4-23.37,12.48-30.64,4.87-8.68,24.13,2,21.84,4.77-10.85,13.19-24.15,29.73-27,34.12,0,0-1,6.83-2.33,16.83-.15,1.14,5.33,3.95,5.33,6.33S257.26,399.32,255.58,398.13Z"/><path class="cls-4" d="M298.09,315c-.21,0-9.65.38-9.86.34-4.95,6.22-8.6,9.56-15.57,20.38,3.47.27,19.25,3.69,21.57,5.79,2-2.49,9-13.23,14.18-21.17C306.5,320.53,302.12,317.63,298.09,315Z"/><path class="cls-5" d="M259.58,400.63c-3.25-2.29-2.42-12-1.67-19.21.21-2-1.08-6.48.33-8.5,2.33-3.33,5.49-2.71,6-4.25,6.27-18.28,8.4-23.37,12.48-30.64,4.87-8.68,24.13,2,21.84,4.77-10.85,13.19-24.15,29.73-27,34.12,0,0-1,6.83-2.33,16.83-.15,1.14,5.33,3.95,5.33,6.33S261.26,401.82,259.58,400.63Z"/><path class="cls-2" d="M291.92,316.44c-4.88,6.81-8.38,10.17-15.06,21.61,3.48.12,19.4,2.83,21.81,4.83,3-4.19,21.49-25,18.57-30.89-10-20-53-31.62-53-31.62-.29-4.16-44.33,3.5-34.42,15.52S291.92,316.44,291.92,316.44Z"/><path class="cls-3" d="M383.33,194.1c0-1.9-14.4-5.44-22.68-3.43a37.29,37.29,0,0,1-8.61.5c-29.26-.63-45.76-4.46-45.76-4.46-20.53-3.33-59.68-16.24-67.56-15.28s-7.7,17,.21,18a96,96,0,0,0,24.88,5.16c20.3,3.57,34.79,4.27,41.69,5,11.28,1.15,46.54,0,46.54,0a22,22,0,0,0,6.42,1.45,31.64,31.64,0,0,0,12.1-2.44C376.45,196.47,383.3,196,383.33,194.1Z"/><path class="cls-2" d="M228.09,266.53s30.83,44.9,31.89,37.73c1.42-9.66,2.84-17.58,4-23.86l.75-6.94s-6.87-8.56-17.19-9.69A44.12,44.12,0,0,0,228.09,266.53Z"/><path class="cls-6" d="M272.39,205.59c.42-12.27-9.83-18.57-16.5-31.67-.84-1.64-8.44-6.08-12.4-6.17-4.41-.09-8.94.58-12.31,4.21-2.6,2.79-7.79,11.46-3.54,34.46,1.26,10.71,6.31,48.17.45,60.11,0,0,13.72-1.27,21.72.73a60.69,60.69,0,0,1,14.89,6.21c2.83-37.33,1.46-46.61,3.27-58.87C268,214.59,272.27,209.07,272.39,205.59Z"/><path class="cls-3" d="M252.76,168.62s.22-4.26,1.38-11.59l-15.47-6.2c2.64,8,.11,17.21.11,17.21,11-1,13.83,4.52,17.1,5.88Z"/><path class="cls-5" d="M263.82,137.24c3.85-5.08,1.49-10.25-.27-13.19-5.44-9.11-11.42-10-19.1-10-10.16,0-14,26.77-13.13,31.27,2.3,11.73,18.5,16.32,25.13,16.51,7.29.21,5.46-2.31,5.24-5.21,0-.12.35-.54.35-.54a7.89,7.89,0,0,1,.63-3.7,9.34,9.34,0,0,1-.29-1.39c0-.32,0-.52.38-.66a7.68,7.68,0,0,0,2.47-1.15C266.56,147.74,262,139.6,263.82,137.24Z"/><path class="cls-7" d="M258.31,153.59s.7.42,4,.45c.41-.19,1.12-.63.52-1.54C262.4,151.81,260.67,153.3,258.31,153.59Z"/><path class="cls-8" d="M258.31,153.59S259,155.28,262,156a1.14,1.14,0,0,0,.84-.59,1.05,1.05,0,0,0-.56-1.4C259,154,258.31,153.59,258.31,153.59Z"/><path class="cls-9" d="M243.75,112.3c-12.4,0-28.91,17.86-12,38.9,1.13,1.4,3.71,3.07,7.56.19a23.22,23.22,0,0,0,4.59-4.75c.55-.82,1.13-1.71,1.75-2.67s-.12-7.17,1.14-7.37c12.16-1.91,17.33-8.35,17.33-11.6C262.62,117.23,257,112.3,243.75,112.3Z"/><path class="cls-5" d="M241.79,143.07c1.85,5.5,4.14,5.76,7.42,5.47L247.38,140l-1.67-3.43C242.44,136.86,239.94,137.57,241.79,143.07Z"/><path class="cls-10" d="M224.34,131.15c-2.89-2.48-1.55-8.46,3-13.36s10.58-6.88,13.47-4.4,1.19,7-3.35,11.9S227.23,133.62,224.34,131.15Z"/><path class="cls-9" d="M248,137.91a13,13,0,0,1-.16-2.64,10.58,10.58,0,0,1,.19-1.73l-3.6,1.29c0,.53,0,1.06,0,1.59l1.07-.35-.09,0a18.33,18.33,0,0,1,1.71,3.88S248.52,141,248,137.91Z"/><path class="cls-9" d="M222.31,130.8c-3-2.61-1.48-9.08,3.5-14.45s11.49-7.61,14.54-5,1.13,7.51-3.85,12.89S225.35,133.41,222.31,130.8Z"/><path class="cls-10" d="M224.35,119.79c-.34-.29.62-1.86,2.14-3.5s3-2.74,3.37-2.45-.53,1.54-2.05,3.18S224.69,120.08,224.35,119.79Z"/><path class="cls-5" d="M385.24,194.09c0-1.9-14.5-5.17-22.74-3a37.27,37.27,0,0,1-8.6.67c-29.26-.09-45.83-3.6-45.83-3.6-20.59-2.94-60-15.12-67.84-14s-7.38,17.1.56,18a96,96,0,0,0,25,4.7c20.37,3.19,34.86,3.62,41.78,4.19,11.3.94,46.54-.91,46.54-.91a22,22,0,0,0,6.45,1.33,31.64,31.64,0,0,0,12.05-2.67C378.41,196.59,385.24,196,385.24,194.09Z"/></svg>