<svg id="Layer_1" data-name="Layer 1" xmlns="http://www.w3.org/2000/svg" viewBox="0 0 512 512"><defs><style>.cls-1{fill:#ffefd6;}.cls-2{fill:#e2a379;}.cls-3{fill:#b3233b;}.cls-4{fill:#f4b382;}.cls-5{fill:#d6876b;}.cls-6{fill:#cc785e;}.cls-7{fill:#602f0f;}.cls-8{fill:#4c230c;}.cls-9{fill:#3d3c3c;}</style></defs><title>down dog</title><path class="cls-1" d="M7.92,256C7.92,119,119,7.92,256,7.92S504.08,119,504.08,256,393,504.08,256,504.08,7.92,393,7.92,256Z"/><path class="cls-2" d="M146.67,313.33c-3.38-.05-5.84-1.47-10-2-5.23-.67-13.92.11-14.67-1-2-3,.37-7.86,3.1-10,2.08-1.64,4.52-2.61,5.45-4,4.74-6.88,21.11-25.6,26.94-33.84q2-2.85,4.3-5.75c6.16-7.82,13.7,8.3,11.2,10.89-10,10.41-32,31.33-36,34.67,0,0,24.06,6.05,21.34,8.67C156.68,312.59,150.79,313.4,146.67,313.33Z"/><path class="cls-2" d="M391.93,305.67c.33-3-10.26-4.67-20.33-6.33-3.68-.61-10.33-2.33-10.33-2.33-11.59-8.67-18.6-15.18-18.6-15.18-13.33-16-33.88-47-40.46-51.4s-16.93,7.77-11.61,13.71,10.36,11.77,16.08,17.2c7.67,10.33,22.25,24.61,27,29.67a52.68,52.68,0,0,0,17.93,12s8.71,5.38,12,6.67A21.8,21.8,0,0,0,376,311C379.45,310.22,391.51,309.39,391.93,305.67Z"/><path class="cls-3" d="M266.86,253c8.58,8.78,17.93,3.54,32,7.76,1.77.53,10.23-1.9,13-4.7,3.12-3.13,5.75-6.87,5.46-11.81-.22-3.81-2.9-13.55-22.46-26.37-8.61-6.49-22.31-19-39.63-33.1C249,183.64,232.5,174.4,232.5,174.4c-8.08-1.66-14.16,25.86-14.16,25.86,25,27.84,37.46,33.52,45.07,43.3C263.4,243.55,264.43,250.47,266.86,253Z"/><path class="cls-2" d="M304.86,262.13s8.61,3.82,15.78,7.9l9.92-9.05c-7.57-3.59-14.06-12.42-14.06-12.42-7.67,10-14.39,10.75-17.63,12.17Z"/><path class="cls-4" d="M343.81,286.17c5.41,3.36,10.35.53,13.11-1.5,8.57-6.27,8.94-12.31,8.22-20-1-10.12-28-11.45-32.36-10.15-11.46,3.38-14.52,19.94-14.09,26.56.47,7.28,2.81,5.22,5.68,4.73.12,0,.57.3.57.3a7.93,7.93,0,0,1,3.74.28A9.38,9.38,0,0,1,330,286c.31-.05.52,0,.69.31a7.71,7.71,0,0,0,1.37,2.36C333.62,289.88,341.3,284.61,343.81,286.17Z"/><path class="cls-5" d="M327,282.22s-.36.74-.07,4c.23.39.73,1.05,1.58.37C329.17,286.12,327.53,284.53,327,282.22Z"/><path class="cls-6" d="M327,282.22s-1.62.82-2.08,3.94a1.14,1.14,0,0,0,.67.78,1.05,1.05,0,0,0,1.34-.69C326.67,283,327,282.22,327,282.22Z"/><path class="cls-7" d="M366.77,263.86c-1.16-12.34-20.48-27.12-39.85-8.34-1.29,1.25-2.71,4,.51,7.54a23.23,23.23,0,0,0,5.16,4.12q1.3.7,2.83,1.49c1.11.57,7.13-.79,7.44.45,3,11.92,9.93,16.47,13.17,16.17C363.63,283.11,368,277,366.77,263.86Z"/><path class="cls-4" d="M336,264.79c-5.3,2.35-5.34,4.66-4.75,7.9l8.33-2.63,3.26-2C342.2,264.85,341.25,262.43,336,264.79Z"/><path class="cls-8" d="M346.2,246.3c2.19-3.11,8.28-2.33,13.58,1.74s7.83,9.89,5.64,13-6.86,1.84-12.16-2.22S344,249.41,346.2,246.3Z"/><path class="cls-7" d="M341.67,270.49a13.06,13.06,0,0,1,2.61-.4,10.58,10.58,0,0,1,1.74,0l-1.62-3.46-1.59.14s.15.38.45,1l0-.09a18.2,18.2,0,0,1-3.71,2.06S338.63,271.29,341.67,270.49Z"/><path class="cls-7" d="M346.35,244.24c2.31-3.28,8.9-2.32,14.71,2.13s8.65,10.72,6.34,14-7.38,1.83-13.19-2.62S344,247.51,346.35,244.24Z"/><path class="cls-8" d="M357.5,245.24c.26-.36,1.9.45,3.68,1.81s3,2.76,2.75,3.12-1.59-.39-3.36-1.75S357.24,245.61,357.5,245.24Z"/><path class="cls-4" d="M411.67,323.33c.33-3-10-4.67-20.33-6.33-3.68-.59-10.33-2.33-10.33-2.33-26.35-16.1-37.77-28.44-37.77-28.44-13.33-16-34.45-51.38-41-55.81s-16.93,7.77-11.61,13.71A96,96,0,0,0,306,264.33c13,16,23.48,26,28.24,31.08,7.76,8.26,37.1,25.26,37.1,25.26s8.71,5.38,12,6.67a21.81,21.81,0,0,0,12.41,1.33C399.19,327.88,411.25,327.06,411.67,323.33Z"/><path class="cls-4" d="M128,328c-3.38-.05-5.84-1.47-10-2-5.23-.67-13.92.11-14.67-1-2-3,.37-7.86,3.1-10,2.08-1.64,4.52-2.61,5.45-4,4.74-6.88,21.11-25.6,26.94-33.84q2-2.85,4.3-5.75c6.15-7.82,18.15,9.62,15.65,12.21-10,10.41-36.41,30-40.44,33.35,0,0,24.06,6.05,21.33,8.67C138,327.26,132.12,328.06,128,328Z"/><path class="cls-9" d="M165.27,247.76a209.48,209.48,0,0,0-22.13,23.69c3.29,1.14,13.92,9.58,15.63,12.2,2.49-2.59,23-21.56,23-21.56,6.47-6,45.08-41,53.64-54.79a71,71,0,0,0,5.43-9.58c2.57-5.49-24.52-23.85-30.66-18.46-10.47,14.24-24.79,44.37-29.17,51.21S165.27,247.76,165.27,247.76Z"/><path class="cls-9" d="M255.25,184.75C239,169.5,230.85,170.39,222,172.17c0,0-8.42,2-13.61,6.45a28.62,28.62,0,0,0-10.41,21s18.45,25.71,23.87,20.9c4.44-3.95,8.53-7.48,12.16-10.56C238.24,206.3,255.25,184.75,255.25,184.75Z"/></svg>