<?xml version="1.0" encoding="UTF-8"?>
<!DOCTYPE svg PUBLIC "-//W3C//DTD SVG 1.1//EN" "http://www.w3.org/Graphics/SVG/1.1/DTD/svg11.dtd">
<!-- Creator: CorelDRAW -->
<svg xmlns="http://www.w3.org/2000/svg" xml:space="preserve" width="6.82666in" height="6.82666in" style="shape-rendering:geometricPrecision; text-rendering:geometricPrecision; image-rendering:optimizeQuality; fill-rule:evenodd; clip-rule:evenodd"
viewBox="0 0 6.82666 6.82666"
 xmlns:xlink="http://www.w3.org/1999/xlink">
 <defs>
  <style type="text/css">
   <![CDATA[
    .fil5 {fill:none}
    .fil3 {fill:#7E7E7E}
    .fil4 {fill:#9D9D9D}
    .fil2 {fill:#202020;fill-rule:nonzero}
    .fil1 {fill:#C1C1C2;fill-rule:nonzero}
    .fil0 {fill:#CDCDCD;fill-rule:nonzero}
   ]]>
  </style>
 </defs>
 <g id="Layer_x0020_1">
  <metadata id="CorelCorpID_0Corel-Layer"/>
  <path class="fil0" d="M2.89142 3.34926c-0.063811,0.152165 -0.134146,0.411591 -0.104681,0.676638 0.0294409,0.265047 0.0758268,0.456472 0.110181,0.908024 0.0343701,0.451547 0.174488,0.750965 0.125402,0.849134 -0.0490827,0.0981693 -0.483965,0.167992 -0.349575,0.222587 0.12765,0.0518661 0.286378,-0.0311732 0.362161,-0.0164409 0.0757638,0.0147126 0.193555,0.0392638 0.173929,-0.0196417 -0.0196339,-0.0589055 -0.0441732,-0.260122 -0.0490827,-0.382843 -0.00490945,-0.122705 0.0275,-0.505543 -0.00196063,-0.613531 0.0441772,-0.250319 0.0294764,-1.22966 0.152181,-1.45053 -0.176701,-0.328862 -0.418555,-0.173398 -0.418555,-0.173398z"/>
  <path class="fil0" d="M2.5102 1.70102c0.0355709,-0.126484 0.494087,-0.47037 0.509898,-0.545472 -0.0276693,-0.0948661 0.00395276,-0.256906 0.102752,-0.351772 0,0 0,0 0,-1.1811e-005l0 1.1811e-005c1.5748e-005,0 1.5748e-005,-1.1811e-005 1.5748e-005,-1.1811e-005 0,1.1811e-005 0,1.1811e-005 0,1.1811e-005 0.0988031,0.0948661 0.130425,0.256906 0.10276,0.351772 0.0158071,0.0751024 0.474319,0.418988 0.509894,0.545472 0.0355748,0.126484 -0.0869567,0.557331 -0.209496,0.952602 -0.0392165,0.331154 -0.0842244,0.354992 -0.143622,0.784378 -0.0487441,0.0829764 -0.259366,0.0593031 -0.259551,0.0592874 -0.000153543,1.5748e-005 -0.210791,0.023689 -0.259535,-0.0592874 -0.102319,-0.437516 -0.142453,-0.458705 -0.143622,-0.784378 -0.122531,-0.395272 -0.245071,-0.826118 -0.209492,-0.952602zm0.517803 0.48785c-0.0965945,0.0125315 -0.174409,-0.012685 -0.174409,-0.012685 -0.155665,-0.102685 -0.034811,-0.519213 -0.034811,-0.519213l0.000291339 -0.00015748c0.062752,0.0327323 0.130071,0.0134724 0.130071,0.0134724 -0.00667323,0.127622 0.0255079,0.221945 0.0255079,0.221945 0.0728622,-0.24137 0.150413,-0.0737913 0.150413,-0.0737913 0.126815,0.0864213 0.175402,0.264134 0.183181,0.228705 -0.073937,0.011622 -0.0768031,0.114689 -0.0742913,0.223976 0.0317756,0.0362795 0.103787,0.0544213 0.157677,0.0544213 0.0434843,-0.0711457 0.130437,-0.3755 0.173921,-0.588949 -0.015811,-0.134358 -0.44252,-0.565051 -0.442705,-0.565232 -0.000153543,0.000181102 -0.426878,0.430874 -0.442689,0.565232 0.0434843,0.213449 0.130445,0.517803 0.173921,0.588949l0 0c0.0711496,0 0.173921,-0.0316181 0.173921,-0.0948622l0 -0.041811zm0.0948465 -1.38498l0 0c-0.011748,0.180476 -0.000153543,0.364724 0,0.36735 0.000173228,-0.00262598 0.0117677,-0.186874 0,-0.36735z"/>
  <path class="fil1" d="M3.0599 3.47172c0.0595354,0.0173268 0.273587,-0.0231299 0.31924,-0.0455197 0.19413,0.119634 0.33978,0.222528 0.550835,0.223575 0.211031,0.00105118 0.493004,0.181949 0.35713,0.447024 -0.109567,-0.188319 -0.260106,-0.215681 -0.357752,-0.202945 -0.0976417,0.0127559 -0.480358,0.0165984 -0.635102,-0.0366811 -0.15474,-0.0532835 -0.286354,-0.0829488 -0.286354,-0.0829488l0.0520039 -0.302504z"/>
  <path class="fil0" d="M3.23188 3.85133c-0.0494567,0.380945 -0.0422008,0.941205 -0.0740866,1.12186 0.00915748,0.0335354 0.0096063,0.0277283 0.0121378,0.0982638l-0.256417 0c-0.00824803,-0.0638307 -0.0111339,-0.0658071 -0.0165945,-0.137528 -0.0343543,-0.451551 -0.0807402,-0.642976 -0.110181,-0.908024 -0.0241969,-0.217705 0.0189567,-0.431524 0.0704961,-0.585327l0.00608268 -0.0025748c0,0 0.0948661,0.0233898 0.241118,0.0378858 0.0585315,0.103976 0.0998346,0.245083 0.127445,0.375445z"/>
  <path class="fil2" d="M3.45282 1.6468c0.0482165,0.0922795 0.0539685,0.240008 -0.106075,0.384713 0,0 -0.122031,0.120098 -0.205594,0.0163031 0.0530197,-0.0842362 0.012811,-0.137992 -0.0160866,-0.229374 0,0 -0.0775512,-0.167579 -0.150413,0.0737913 0,0 -0.0321811,-0.0943228 -0.0255079,-0.221945 0,0 -0.081378,0.0239843 -0.148622,-0.0242165 0.074815,-0.110969 0.156138,-0.200512 0.267126,-0.217531 0.147382,-0.0225906 0.302823,0.0606654 0.385173,0.21826z"/>
  <path class="fil3" d="M2.71969 2.65362c0.0349764,0.417606 0.0310276,0.446768 0.141472,0.775213 0.000712598,0.00303543 0.00142913,0.00609055 0.00214961,0.00916535 0,0 0.0948661,0.0233898 0.241118,0.0378858 0.0452835,-0.000326772 0.108909,-0.00903937 0.164398,-0.0198976 0.0495433,-0.00969685 0.0925984,-0.0211024 0.110311,-0.0297874 0.00150787,0.000929134 0.00301181,0.00185827 0.00451181,0.00278346 0.117378,-0.362122 0.131736,-0.418232 0.14237,-0.775362 0.0415709,-0.134091 0.0831417,-0.27228 0.118535,-0.401287l-0.186744 -0.0992087c-0.0252598,0.0803976 -0.0490827,0.144441 -0.0661811,0.172417 -0.0492598,0 -0.113657,-0.0151575 -0.14863,-0.0454685l-0.00482283 0.000562992c0.000173228,0.120228 -0.0977323,0.357043 -0.263161,0.0176693 -0.0356063,0.0181575 -0.082811,0.0272362 -0.120937,0.0272362 -0.0200945,-0.0328819 -0.0494764,-0.115579 -0.079563,-0.216091l-0.175665 0.134457c0.0358898,0.131406 0.0783661,0.272697 0.120839,0.409713z"/>
  <path class="fil4" d="M2.78674 4.0259c0.00434252,0.0390906 0.00905512,0.0765827 0.0140394,0.113543l0.404575 0c0.0065748,-0.101055 0.0150157,-0.199441 0.0265276,-0.288114 -0.00112205,-0.0052874 -0.00226378,-0.0105945 -0.00342913,-0.0159173 0.00276378,0.000877953 0.00553937,0.00176378 0.00833071,0.00266142 0.0186378,0.00597638 0.0378701,0.0123504 0.0574724,0.0190984 0.0925315,0.0318583 0.266583,0.0432953 0.412449,0.0446102l0.0937244 -0.26626c-0.145665,-0.0320039 -0.266933,-0.114051 -0.416772,-0.206539 -0.0015,-0.000925197 -0.00300394,-0.00185433 -0.00451181,-0.00278346 -0.0177126,0.00868504 -0.0607677,0.0200906 -0.110311,0.0297874 -0.0554882,0.0108583 -0.119114,0.0195709 -0.164398,0.0198976 -0.146252,-0.0144961 -0.241118,-0.0378858 -0.241118,-0.0378858l-0.00608268 0.0025748c-0.0515394,0.153803 -0.0946929,0.367622 -0.0704961,0.585327z"/>
  <path class="fil0" d="M4.3037 4.05161c-0.0164252,0.0846693 -0.113988,0.181941 -0.449839,0.0882165 -0.335854,-0.0937283 -0.633941,-0.233256 -0.714528,-0.208012 -0.0805748,0.0252323 -0.149,0.122476 -0.212217,0.164961 -0.0632205,0.0424724 -0.148854,0.0179961 -0.0950551,-0.0515906 0.0538386,-0.0695472 0.14048,-0.192606 0.147661,-0.275752 0.00449213,-0.0520433 0.0503425,-0.0912283 0.171437,-0.0564016 0.121063,0.0348307 0.372449,0.135862 0.529299,0.13661 0.15687,0.000759843 0.287126,-0.0480748 0.404189,-0.00994094 0.117059,0.0381299 0.237303,0.117776 0.219051,0.211909z"/>
  <rect class="fil5" width="6.82666" height="6.82666"/>
 </g>
</svg>
