<?xml version="1.0" encoding="UTF-8"?>
<!DOCTYPE svg PUBLIC "-//W3C//DTD SVG 1.1//EN" "http://www.w3.org/Graphics/SVG/1.1/DTD/svg11.dtd">
<!-- Creator: CorelDRAW -->
<svg xmlns="http://www.w3.org/2000/svg" xml:space="preserve" width="6.82666in" height="6.82666in" style="shape-rendering:geometricPrecision; text-rendering:geometricPrecision; image-rendering:optimizeQuality; fill-rule:evenodd; clip-rule:evenodd"
viewBox="0 0 6.82666 6.82666"
 xmlns:xlink="http://www.w3.org/1999/xlink">
 <defs>
  <style type="text/css">
   <![CDATA[
    .fil7 {fill:none}
    .fil1 {fill:#202020;fill-rule:nonzero}
    .fil4 {fill:#7E7E7E;fill-rule:nonzero}
    .fil2 {fill:#9D9D9D;fill-rule:nonzero}
    .fil6 {fill:#B5B5B6;fill-rule:nonzero}
    .fil0 {fill:#BEBEBE;fill-rule:nonzero}
    .fil3 {fill:#D8D8D8;fill-rule:nonzero}
    .fil5 {fill:url(#id0);fill-rule:nonzero}
   ]]>
  </style>
  <linearGradient id="id0" gradientUnits="userSpaceOnUse" x1="2.91783" y1="2.66117" x2="2.91783" y2="0.768417">
   <stop offset="0" style="stop-color:#CACACA"/>
   <stop offset="1" style="stop-color:#D8D8D8"/>
  </linearGradient>
 </defs>
 <g id="Layer_x0020_1">
  <metadata id="CorelCorpID_0Corel-Layer"/>
  <path class="fil0" d="M3.0589 2.82893c-0.0281142,0.0237283 -0.155358,0.363535 -0.230783,0.363638 -0.0665748,9.05512e-005 -0.184969,-0.308445 -0.0769685,-0.381827l0.0138465 -0.170917c-0.119008,0.0202244 -0.230126,-0.0118819 -0.230126,-0.0118819 -0.178701,-0.117886 -0.0399606,-0.596063 -0.0399606,-0.596063l0.000334646 -0.000177165c0.0720354,0.0375748 0.149319,0.0154606 0.149319,0.0154606 -0.00765748,0.146516 0.0292835,0.254799 0.0292835,0.254799 0.0836496,-0.277094 0.172681,-0.0847126 0.172681,-0.0847126 0.145579,0.0992087 0.201358,0.303224 0.210291,0.262551 -0.136976,0.0215276 -0.060815,0.0590984 -0.0787638,0.0764331l0.0105394 0.0191575 -0.0135157 0.0908031 0.0838228 0.162736z"/>
  <path class="fil1" d="M3.22279 2.0202c0.0553504,0.105937 0.0619528,0.275528 -0.121776,0.44165 0,0 -0.140094,0.137878 -0.236024,0.0187165 0.0608661,-0.0967008 0.0147087,-0.158417 -0.0184646,-0.263319 0,0 -0.0890315,-0.192382 -0.172681,0.0847126 0,0 -0.0369409,-0.108283 -0.0292835,-0.254799 0,0 -0.0934213,0.0275394 -0.170618,-0.0277953 0.0858937,-0.127394 0.179248,-0.230189 0.306665,-0.249728 0.169193,-0.0259331 0.347638,0.0696417 0.442181,0.250563z"/>
  <path class="fil0" d="M3.64835 4.57645c0,0 0.220972,0.283276 0.638724,0.442768 0,0 0.372232,0.064626 0.81652,0.622862 0,0 0.360717,0.277276 0.167039,0.281031 0,0 -0.353201,0.0949409 -0.307587,-0.178465 -0.300492,-0.274181 -1.20432,-0.555866 -1.55982,-0.905508l0.245126 -0.262689z"/>
  <path class="fil0" d="M2.35099 4.25668c0,0 -0.556713,0.0926969 -0.533972,0.354713 0,0 0.0634331,0.883701 0.0900276,1.104l-0.308181 0.160839c0,0 -0.224598,0.0971063 -0.000531496,0.0971063l0.422866 0c0,0 0.0940984,-0.021563 0.0936063,-0.155331 -0.0645591,-0.425346 0.0835276,-0.788673 -0.0531811,-1.11144 0,0 0.0894331,0.0155709 0.371303,-0.0602638l-0.081937 -0.389614z"/>
  <path class="fil2" d="M2.3465 4.23679c0,0 0.501303,-0.182272 0.73674,-0.341764 0,0 0.277209,-0.0682953 0.406327,0.402634 0,0 0.0494331,0.14811 0.170902,0.265819l-0.265791 0.284831c0,0 -0.243031,-0.129181 -0.391154,-0.273512 0,0 -0.362642,0.0759252 -0.570598,0.0683661l-0.0864252 -0.406374z"/>
  <path class="fil3" d="M2.67191 4.10628c0.144228,-0.0624291 0.304921,-0.139161 0.411327,-0.211256l-0.0358425 -0.0759252 -0.457874 0.170862c0.0355157,0.0844252 0.0823898,0.116319 0.0823898,0.116319z"/>
  <path class="fil4" d="M2.70348 2.6722l0.288614 -0.0987441 0.0265945 0.148268c0,0 0.207591,0.280138 0.112705,0.576402 0,0 0.0810669,0.481909 0.211815,0.702232 -0.115835,-0.0893268 -0.422575,-0.0132677 -0.740508,0.147661 -0.112228,-0.199614 -0.206992,-0.843236 -0.0207598,-1.15683 0,0 0.151917,-0.155602 0.121539,-0.318992z"/>
  <path class="fil5" d="M2.96722 2.58198c0,0 -0.0857717,-0.780571 0.0433307,-1.21097 0,0 0.157827,-0.304764 0.0317795,-0.263807 0,0 0.0435157,-0.176472 -0.0271024,-0.185941 0,0 -0.0359331,-0.15285 -0.0863661,0 0,0 -0.0457087,-0.0299252 -0.0441181,0.104004 0,0 -0.0567441,-0.0724764 -0.0409724,0.196965 -0.0126142,0.496382 -0.176496,0.631902 -0.107957,1.43894l0.231406 -0.079189z"/>
  <path class="fil6" d="M2.06162 4.70656c0,0 -0.0328898,-0.00331102 -0.0450236,-0.00870079 0,0 0.0429409,0.0266142 0.0666378,0.0672441l-0.0216142 -0.0585433z"/>
  <rect class="fil7" width="6.82666" height="6.82666"/>
 </g>
</svg>
