<?xml version="1.0" encoding="UTF-8"?>
<!DOCTYPE svg PUBLIC "-//W3C//DTD SVG 1.1//EN" "http://www.w3.org/Graphics/SVG/1.1/DTD/svg11.dtd">
<!-- Creator: CorelDRAW -->
<svg xmlns="http://www.w3.org/2000/svg" xml:space="preserve" width="6.82666in" height="6.82666in" style="shape-rendering:geometricPrecision; text-rendering:geometricPrecision; image-rendering:optimizeQuality; fill-rule:evenodd; clip-rule:evenodd"
viewBox="0 0 6.82666 6.82666"
 xmlns:xlink="http://www.w3.org/1999/xlink">
 <defs>
  <style type="text/css">
   <![CDATA[
    .fil5 {fill:none}
    .fil3 {fill:#202020;fill-rule:nonzero}
    .fil4 {fill:#7E7E7E;fill-rule:nonzero}
    .fil1 {fill:#9D9D9D;fill-rule:nonzero}
    .fil2 {fill:#BBBBBC;fill-rule:nonzero}
    .fil0 {fill:#CDCDCD;fill-rule:nonzero}
   ]]>
  </style>
 </defs>
 <g id="Layer_x0020_1">
  <metadata id="CorelCorpID_0Corel-Layer"/>
  <path class="fil0" d="M4.83248 3.08354c0,0 0.301,-0.0178504 0.751969,-0.16213 0,0 0.207378,-0.0250354 0.0179764,-0.265059 0,0 -0.423882,-0.501571 -0.716988,-0.776602 0,0 -0.0721142,-0.108528 -0.247976,-0.275213 0,0 -0.00453937,-0.0675551 -0.162327,-0.144181 0,0 -0.207449,-0.238996 -0.47348,-0.419374 0,0 -0.213402,-0.0992402 -0.25272,0.120598l-0.157476 0.423193 0.249752 0.153965c0,0 0.0693465,-0.164898 0.107201,-0.42113 0,0 0.25163,0.0435079 0.481598,0.223937 0,0 0.00448819,0.184862 0.130732,0.198378 0,0 -0.0405669,0.311134 0.20748,0.252531 0,0 0.162346,0.351752 0.383335,0.635858 0,0 -0.275004,0.0144488 -0.334244,0.0720118l0.0151693 0.383217z"/>
  <path class="fil0" d="M2.76127 1.92269c0,0 -0.491283,-0.0429449 -1.05498,-0.0925866 0,0 -0.076626,-0.0946732 -0.263791,-0.126244l-0.227713 -0.0248465c0,0 -0.166843,0 0.0135315,0.0609055 0,0 -0.00897638,0.14878 0.157835,0.216453 0,0 0.157835,0.0270591 0.324673,0.0135197 0,0 0.724378,0.163209 1.03279,0.215449l0.0176496 -0.26265z"/>
  <path class="fil1" d="M3.88739 3.27611l0.0512283 -0.619764c0,0.0214055 0.186252,-0.0391969 0.400965,-0.00624409 0.203075,0.0311535 0.263291,0.0324567 0.476713,0.0247992l0.0443583 0.585697 -0.447984 -0.00995669 -0.015252 0.518953 -0.488701 0.0302205 -0.0213268 -0.523705z"/>
  <path class="fil0" d="M3.95434 3.79869l0.146457 1.89601c0,0 -0.480201,0.138803 -0.472331,0.269409 0,0 0.102697,0.0266063 0.467965,-0.0105827 0,0 0.265638,0.0480079 0.238874,-0.141602 -0.0495709,-0.509539 0.111626,-0.9605 -0.0439528,-1.26828 0,0 0.0929724,-0.272539 0.0657008,-0.775992l-0.402713 0.0310354z"/>
  <path class="fil2" d="M4.56074 1.73992c0,0 -0.0676693,-0.111941 0,-0.197909 0.0472441,-0.0600157 -0.0629882,0.0545591 0,0.197909z"/>
  <path class="fil2" d="M5.15998 2.62831c0,0 0.0376339,0.0355276 0.088937,0.0556024 0,0 -0.0357677,-0.00288976 -0.116016,-0.0538622l0.0270787 -0.00174016z"/>
  <polygon class="fil3" points="4.01187,3.40923 4.01187,3.40925 4.01187,3.40931 4.01188,3.4093 "/>
  <path class="fil4" d="M2.75854 1.91463l-0.0210984 0.269701c0,0 0.16439,0.0421299 0.354008,0.0716535 0,0 0.0531575,0.865957 0.809587,1.08931l0.116177 -0.681752c0.0194567,-0.0534724 -0.129618,-0.170382 -0.228972,-0.365819 -0.0395236,-0.0777402 -0.0477244,-0.179508 -0.0519882,-0.290402l0.113835 -0.265504 -0.25863 -0.157043c0,0 -0.0509409,0.249823 -0.426335,0.361449l-0.406583 -0.0315906z"/>
  <path class="fil0" d="M3.3621 2.15698c-0.0675433,9.44882e-005 -0.266354,-0.201827 -0.15678,-0.276276l0.043878 -0.140264c-0.12074,0.0205197 -0.233472,-0.0120551 -0.233472,-0.0120551 -0.181303,-0.119602 -0.0405472,-0.604736 -0.0405472,-0.604736l0.00034252 -0.000181102c0.0730866,0.038122 0.151496,0.015685 0.151496,0.015685 -0.00777165,0.14865 0.0297087,0.258508 0.0297087,0.258508 0.0848622,-0.281126 0.175189,-0.0859488 0.175189,-0.0859488 0.147701,0.100657 0.204291,0.307642 0.213358,0.266378 -0.138972,0.0218386 -0.0617008,0.0599567 -0.0799094,0.0775433l0.0459449 0.0876535c-0.0199409,0.0892441 -0.0918898,0.413618 -0.149209,0.413693z"/>
  <path class="fil3" d="M3.71366 1.1118c0.0561575,0.10748 0.0628543,0.279539 -0.123547,0.448083 0,0 -0.142134,0.139882 -0.239461,0.0189843 0.0617559,-0.0981063 0.0149213,-0.16072 -0.0187362,-0.267154 0,0 -0.0903268,-0.195177 -0.175189,0.0859488 0,0 -0.0374803,-0.109858 -0.0297087,-0.258508 0,0 -0.0947835,0.027937 -0.173106,-0.0282008 0.0871417,-0.129248 0.181858,-0.233539 0.31113,-0.253362 0.171657,-0.026315 0.352701,0.0706535 0.448618,0.254209z"/>
  <rect class="fil5" width="6.82666" height="6.82666"/>
 </g>
</svg>
