<?xml version="1.0" encoding="UTF-8"?>
<!DOCTYPE svg PUBLIC "-//W3C//DTD SVG 1.1//EN" "http://www.w3.org/Graphics/SVG/1.1/DTD/svg11.dtd">
<!-- Creator: CorelDRAW -->
<svg xmlns="http://www.w3.org/2000/svg" xml:space="preserve" width="6.82666in" height="6.82666in" style="shape-rendering:geometricPrecision; text-rendering:geometricPrecision; image-rendering:optimizeQuality; fill-rule:evenodd; clip-rule:evenodd"
viewBox="0 0 6.82666 6.82666"
 xmlns:xlink="http://www.w3.org/1999/xlink">
 <defs>
  <style type="text/css">
   <![CDATA[
    .fil5 {fill:none}
    .fil2 {fill:#9D9D9D}
    .fil4 {fill:#202020;fill-rule:nonzero}
    .fil3 {fill:#7E7E7E;fill-rule:nonzero}
    .fil1 {fill:#C1C1C2;fill-rule:nonzero}
    .fil0 {fill:#CDCDCD;fill-rule:nonzero}
   ]]>
  </style>
 </defs>
 <g id="Layer_x0020_1">
  <metadata id="CorelCorpID_0Corel-Layer"/>
  <path class="fil0" d="M3.10857 3.14661c-0.0674646,0.160878 -0.141823,0.435157 -0.110673,0.715382 0.031126,0.28022 0.0801693,0.48261 0.116488,0.960016 0.0363386,0.477406 0.18448,0.793965 0.132587,0.897756 -0.0518937,0.103791 -0.511677,0.17761 -0.369591,0.235335 0.134957,0.0548307 0.302776,-0.0329606 0.382898,-0.0173858 0.0801024,0.0155551 0.204638,0.0415118 0.183886,-0.0207638 -0.0207559,-0.0622835 -0.0467008,-0.27502 -0.0518937,-0.404768 -0.00518898,-0.129728 0.0290748,-0.534488 -0.00207087,-0.648661 0.0467047,-0.26465 0.0311654,-1.30007 0.160894,-1.53359 -0.186819,-0.347689 -0.442524,-0.183323 -0.442524,-0.183323z"/>
  <path class="fil1" d="M3.2867 3.27607c0.0629449,0.0183189 0.289252,-0.0244567 0.337524,-0.048126 0.205244,0.126484 0.359232,0.235268 0.58237,0.236378 0.223118,0.0011063 0.521236,0.192366 0.377579,0.472618 -0.115839,-0.199102 -0.274996,-0.228031 -0.378232,-0.214563 -0.103236,0.0134843 -0.507866,0.0175433 -0.671469,-0.0387835 -0.163602,-0.0563386 -0.302752,-0.0877008 -0.302752,-0.0877008l0.0549803 -0.319823z"/>
  <path class="fil0" d="M3.46853 3.67742c-0.0522874,0.402756 -0.0446181,0.995098 -0.0783268,1.18609 0.0096811,0.0354567 0.0101535,0.0293189 0.0128307,0.10389l-0.271098 0c-0.00872047,-0.0674843 -0.0117717,-0.0695748 -0.0175472,-0.145402 -0.0363189,-0.477406 -0.0853622,-0.679795 -0.116488,-0.960016 -0.0255827,-0.230173 0.0200433,-0.456232 0.0745354,-0.618843l0.00642913 -0.00272441c0,0 0.100299,0.0247283 0.254921,0.0400591 0.0618858,0.109925 0.105555,0.259114 0.134744,0.396941z"/>
  <path class="fil2" d="M2.9979 3.86199c0.00459055,0.0413268 0.0095748,0.0809685 0.0148425,0.120043l0.427744 0c0.00694882,-0.106843 0.015874,-0.210858 0.0280433,-0.30461 -0.00118504,-0.00559055 -0.0023937,-0.0112008 -0.00362598,-0.0168307 0.0029252,0.000929134 0.00585827,0.00186614 0.00881102,0.00281496 0.0197047,0.0063189 0.0400354,0.0130591 0.0607598,0.0201929 0.0978307,0.0336811 0.28185,0.0457756 0.436067,0.0471654l0.0990906 -0.281508c-0.154004,-0.0338346 -0.282217,-0.120583 -0.440634,-0.218366 -0.00158661,-0.000976378 -0.00317717,-0.00196063 -0.00477165,-0.00294094 -0.0187283,0.0091811 -0.064248,0.0212402 -0.116626,0.0314921 -0.0586654,0.0114803 -0.125937,0.0206929 -0.173811,0.0210354 -0.154626,-0.0153228 -0.254925,-0.0400551 -0.254925,-0.0400551l-0.00642913 0.00272441c-0.0544921,0.16261 -0.100118,0.388673 -0.0745354,0.618843z"/>
  <path class="fil0" d="M4.60172 3.88917c-0.0173622,0.0895157 -0.120512,0.192358 -0.475594,0.0932677 -0.355083,-0.0990945 -0.67024,-0.246614 -0.755441,-0.219925 -0.085185,0.0266811 -0.157531,0.129492 -0.224366,0.174409 -0.0668425,0.0449016 -0.157378,0.0190236 -0.1005,-0.0545472 0.0569213,-0.0735276 0.148524,-0.203634 0.156118,-0.291539 0.00474803,-0.0550276 0.0532244,-0.0964528 0.181256,-0.0596339 0.127992,0.0368268 0.393772,0.143646 0.559606,0.144433 0.16585,0.00080315 0.303563,-0.0508268 0.427327,-0.0105118 0.123768,0.040315 0.250894,0.124524 0.231594,0.224047z"/>
  <path class="fil0" d="M2.60616 1.83819c-0.300783,0.00245276 -0.375614,-0.0626299 -0.878882,-0.0435 0,0 -0.300362,-0.0156654 -0.524055,0.029874 -0.14565,0.000244094 -0.203567,-0.0130079 -0.465012,0.112071 -0.0397362,0.0804567 0.280264,-0.0346732 0.315362,0.00568504 0.170102,0.050189 0.613465,0.034752 0.803181,0.0269488 0.188232,0.0903504 0.629811,0.106256 0.750933,0.141016 0,0 -0.00355906,-0.17328 -0.00152756,-0.272094z"/>
  <path class="fil0" d="M4.2205 1.84438c0.300783,0.00245276 0.375614,-0.062626 0.878882,-0.0435 0,0 0.300362,-0.0156654 0.524055,0.029878 0.14565,0.000244094 0.203567,-0.0130118 0.465012,0.112067 0.0397362,0.0804606 -0.280264,-0.0346732 -0.315362,0.00568504 -0.170102,0.050189 -0.613465,0.034752 -0.803181,0.0269488 -0.188232,0.0903504 -0.629811,0.106256 -0.750933,0.14102 0,0 0.00355906,-0.173283 0.00152756,-0.272098z"/>
  <path class="fil3" d="M4.25869 1.83823c0,0 -0.263882,-0.044689 -0.668091,0.00822441 0,0 -0.122161,0.110961 -0.329882,0.0240866 0,0 -0.414236,-0.0542874 -0.671071,-0.032311l-0.0492047 0.265378 0.192937 0.0257126c0.232803,0.031 0.131917,0.244043 0.159039,0.517673 0.018311,0.18478 0.0183425,0.545787 0.017378,0.55828 0,0 0.679669,0.231421 0.955366,0.000992126 -0.0306732,-0.141748 -0.108197,-0.462732 -0.066689,-0.718614 0.0248504,-0.153193 0.0306693,-0.279307 0.192429,-0.330224l0.267787 -0.0377402 0 -0.281457z"/>
  <path class="fil0" d="M3.59272 1.84821c-0.0281181,0.0237244 -0.181496,0.432138 -0.256929,0.432248 -0.0665827,9.84252e-005 -0.214374,-0.341114 -0.106374,-0.414492l0.043252 -0.138252c-0.119008,0.0202244 -0.230126,-0.0118819 -0.230126,-0.0118819 -0.178701,-0.117886 -0.0399606,-0.596063 -0.0399606,-0.596063l0.000334646 -0.000177165c0.0720354,0.0375748 0.149319,0.0154606 0.149319,0.0154606 -0.00765748,0.146516 0.0292835,0.254799 0.0292835,0.254799 0.0836496,-0.277094 0.172681,-0.0847126 0.172681,-0.0847126 0.145579,0.0992087 0.201358,0.303224 0.210291,0.262551 -0.136976,0.0215276 -0.060815,0.0590984 -0.0787638,0.0764331l0.106992 0.204087z"/>
  <path class="fil4" d="M3.73046 1.10809c0.0553504,0.105937 0.0619528,0.275528 -0.121776,0.44165 0,0 -0.140094,0.137878 -0.236024,0.0187165 0.0608661,-0.0967008 0.0147087,-0.158417 -0.0184646,-0.263319 0,0 -0.0890315,-0.192382 -0.172681,0.0847126 0,0 -0.0369409,-0.108283 -0.0292835,-0.254799 0,0 -0.0934213,0.0275394 -0.170618,-0.0277953 0.0858937,-0.127394 0.179248,-0.230189 0.306665,-0.249728 0.169193,-0.0259331 0.347638,0.0696417 0.442181,0.250563z"/>
  <rect class="fil5" width="6.82666" height="6.82666"/>
 </g>
</svg>
