<?xml version="1.0" encoding="utf-8"?>
<!-- Generator: Adobe Illustrator 22.0.0, SVG Export Plug-In . SVG Version: 6.00 Build 0)  -->
<svg version="1.1" id="Layer_1" xmlns="http://www.w3.org/2000/svg" xmlns:xlink="http://www.w3.org/1999/xlink" x="0px" y="0px"
	 viewBox="0 0 500 500" style="enable-background:new 0 0 500 500;" xml:space="preserve">
<style type="text/css">
	.st0{fill:#FDDF7F;}
	.st1{fill:#ECF4F7;}
	.st2{fill:#83E1E5;}
	.st3{fill:#1C1D21;}
	.st4{fill:#AAB1BA;}
</style>
<g>
	<path class="st0" d="M367.141,299.606h-66.116v-17.638c-0.002,0.001-0.005,0.002-0.007,0.003
		c40.636-19.273,68.638-60.846,68.184-108.914c-0.621-65.718-55.001-118.866-120.717-118.048
		c-65.139,0.811-117.694,53.867-117.694,119.199c0,47.58,27.879,88.644,68.19,107.763c-0.002-0.001-0.005-0.002-0.007-0.003v17.638
		h-66.116c-25.853,0-46.81,20.958-46.81,46.81V495h327.904V346.417C413.952,320.564,392.994,299.606,367.141,299.606z"/>
</g>
<g>
	<ellipse class="st2" cx="250" cy="147.076" rx="32.22" ry="55.797"/>
</g>
<g>
	<path class="st1" d="M217.78,147.076c0-5.775,0.766-11.37,2.193-16.695c-14.937-8.626-32.593-10.764-48.882-6.417
		c-5.736,21.495-0.191,45.375,16.672,62.237s40.742,22.408,62.237,16.672C230.745,191.73,217.78,170.924,217.78,147.076z"/>
</g>
<g>
	<path class="st1" d="M328.909,123.964c-16.289-4.347-33.945-2.209-48.882,6.417c1.426,5.325,2.193,10.919,2.193,16.695
		c0,23.848-12.964,44.654-32.22,55.797c21.495,5.736,45.374,0.191,62.237-16.672C329.1,169.338,334.645,145.459,328.909,123.964z"/>
</g>
<path class="st3" d="M53.333,317.42h-5.975c-2.762,0-5-2.239-5-5s2.238-5,5-5h5.975v-5.974c0-2.761,2.238-5,5-5s5,2.239,5,5v5.974
	h5.975c2.762,0,5,2.239,5,5s-2.238,5-5,5h-5.975v5.975c0,2.761-2.238,5-5,5s-5-2.239-5-5V317.42z M239.025,20.975H245v5.975
	c0,2.761,2.238,5,5,5s5-2.239,5-5v-5.975h5.975c2.762,0,5-2.239,5-5s-2.238-5-5-5H255V5c0-2.761-2.238-5-5-5s-5,2.239-5,5v5.975
	h-5.975c-2.762,0-5,2.239-5,5S236.264,20.975,239.025,20.975z M452.642,307.42h-5.975v-5.974c0-2.761-2.238-5-5-5s-5,2.239-5,5
	v5.974h-5.975c-2.762,0-5,2.239-5,5s2.238,5,5,5h5.975v5.975c0,2.761,2.238,5,5,5s5-2.239,5-5v-5.975h5.975c2.762,0,5-2.239,5-5
	S455.403,307.42,452.642,307.42z M151.171,107.346c0.895,0.662,1.937,0.981,2.97,0.981c1.531,0,3.043-0.701,4.023-2.026
	c0.309-0.417,0.621-0.833,0.936-1.246c1.673-2.197,1.247-5.334-0.95-7.007c-2.199-1.672-5.335-1.248-7.007,0.951
	c-0.342,0.449-0.682,0.9-1.018,1.354C148.482,102.573,148.951,105.704,151.171,107.346z M196.839,286.489
	c16.398,7.778,34.781,11.89,53.161,11.89c18.384,0,36.77-4.111,53.169-11.89c0.057-0.027,0.113-0.055,0.168-0.083
	c43.512-20.721,71.321-65.209,70.866-113.396c-0.313-33.104-13.603-64.17-37.423-87.474C313.319,62.583,282.558,50,249.998,50
	c-0.522,0-1.05,0.003-1.574,0.01c-32.27,0.402-62.696,13.115-85.676,35.796c-1.965,1.94-1.985,5.105-0.046,7.071
	c1.94,1.966,5.105,1.985,7.071,0.046c21.129-20.856,49.105-32.545,78.775-32.915c0.483-0.006,0.964-0.009,1.446-0.009
	c29.928,0,58.216,11.574,79.792,32.684c21.906,21.432,34.129,49.993,34.416,80.42c0.419,44.369-25.224,85.328-65.327,104.349
	c-0.031,0.015-0.063,0.03-0.094,0.045c-0.022,0.011-0.044,0.022-0.066,0.034c-15.025,7.096-31.867,10.846-48.716,10.846
	c-16.907,0-33.808-3.778-48.876-10.925c-39.688-18.823-65.332-59.349-65.332-103.245c0-19.251,4.878-38.28,14.106-55.03
	c1.333-2.419,0.452-5.46-1.966-6.792c-2.422-1.333-5.459-0.452-6.792,1.966c-10.041,18.224-15.349,38.922-15.349,59.856
	c0,23.962,6.839,47.222,19.777,67.266C158.166,260.99,175.896,276.556,196.839,286.489z M184.228,189.737
	c-17.462-17.462-24.347-43.159-17.968-67.062c0.462-1.729,1.813-3.081,3.542-3.542c15.703-4.19,32.594-2.66,47.236,4.115
	c5.53-15.052,16.189-28.039,30.459-36.296c1.549-0.896,3.459-0.896,5.008,0c14.269,8.257,24.929,21.245,30.459,36.296
	c14.642-6.775,31.533-8.305,47.235-4.115c1.729,0.461,3.08,1.813,3.542,3.542c6.379,23.903-0.506,49.6-17.968,67.062
	c-13.154,13.154-30.984,20.307-49.199,20.307c-5.53,0-11.093-0.668-16.573-2.018c-5.48,1.35-11.045,2.018-16.573,2.018
	C215.211,210.043,197.383,202.892,184.228,189.737z M286.132,134.936c0.05,0.28,0.105,0.559,0.151,0.839
	c0.084,0.514,0.161,1.029,0.234,1.546c0.089,0.625,0.168,1.252,0.241,1.88c0.038,0.327,0.083,0.652,0.115,0.979
	c0.098,0.971,0.167,1.947,0.224,2.925c0.016,0.284,0.03,0.569,0.043,0.853c0.047,1.036,0.08,2.074,0.08,3.117
	c0,1.15-0.039,2.295-0.096,3.437c-0.011,0.216-0.02,0.431-0.032,0.646c-0.065,1.1-0.157,2.195-0.274,3.285
	c-0.022,0.207-0.048,0.413-0.073,0.619c-0.128,1.097-0.275,2.19-0.456,3.275c-0.006,0.039-0.011,0.077-0.018,0.116
	c-0.186,1.108-0.406,2.207-0.645,3.301c-0.046,0.213-0.092,0.427-0.14,0.64c-0.242,1.06-0.507,2.114-0.797,3.159
	c-0.053,0.189-0.109,0.377-0.164,0.566c-0.297,1.033-0.612,2.059-0.956,3.075c-0.021,0.063-0.04,0.127-0.062,0.19
	c-0.359,1.051-0.75,2.09-1.157,3.121c-0.08,0.201-0.158,0.402-0.239,0.602c-0.409,1.006-0.838,2.002-1.293,2.986
	c-0.076,0.165-0.157,0.329-0.234,0.493c-0.451,0.958-0.92,1.906-1.415,2.842c-0.042,0.079-0.081,0.159-0.123,0.238
	c-0.519,0.974-1.067,1.933-1.632,2.882c-0.11,0.185-0.22,0.37-0.332,0.554c-0.565,0.93-1.149,1.849-1.758,2.752
	c-0.093,0.138-0.19,0.274-0.284,0.412c-0.594,0.869-1.207,1.726-1.84,2.568c-0.066,0.088-0.129,0.177-0.195,0.265
	c-0.667,0.878-1.359,1.736-2.068,2.583c-0.139,0.166-0.278,0.332-0.419,0.497c-0.711,0.834-1.439,1.653-2.191,2.454
	c-0.104,0.111-0.212,0.219-0.317,0.33c-0.727,0.764-1.471,1.513-2.233,2.246c-0.093,0.089-0.182,0.18-0.276,0.269
	c-0.802,0.762-1.627,1.501-2.467,2.226c-0.084,0.073-0.163,0.151-0.247,0.223c16.895,1.081,33.741-5.086,45.915-17.259
	c14.253-14.253,20.271-34.921,16.063-54.556c-13.129-2.809-27.015-1.07-38.987,4.86C285.912,133.622,286.016,134.28,286.132,134.936
	z M222.901,143.306c-0.005,0.08-0.007,0.159-0.012,0.239c-0.033,0.541-0.061,1.083-0.078,1.627c-0.02,0.634-0.031,1.269-0.031,1.904
	c0,0.646,0.011,1.29,0.032,1.932c0.007,0.214,0.021,0.427,0.031,0.641c0.019,0.429,0.037,0.857,0.065,1.284
	c0.017,0.252,0.041,0.502,0.06,0.754c0.031,0.387,0.06,0.774,0.097,1.16c0.026,0.268,0.06,0.534,0.09,0.801
	c0.041,0.368,0.082,0.736,0.13,1.102c0.036,0.274,0.078,0.546,0.118,0.819c0.052,0.357,0.104,0.715,0.162,1.071
	c0.046,0.277,0.097,0.553,0.146,0.83c0.063,0.349,0.125,0.697,0.193,1.044c0.055,0.279,0.115,0.556,0.174,0.833
	c0.073,0.343,0.147,0.687,0.226,1.028c0.064,0.277,0.132,0.552,0.2,0.828c0.084,0.339,0.168,0.678,0.258,1.016
	c0.073,0.274,0.149,0.547,0.226,0.819c0.095,0.337,0.191,0.674,0.292,1.009c0.081,0.269,0.164,0.538,0.249,0.806
	c0.106,0.335,0.214,0.669,0.325,1.002c0.089,0.266,0.18,0.53,0.273,0.794c0.116,0.332,0.236,0.663,0.358,0.993
	c0.097,0.261,0.195,0.521,0.295,0.78c0.128,0.331,0.259,0.66,0.393,0.988c0.104,0.254,0.208,0.508,0.315,0.76
	c0.14,0.331,0.284,0.659,0.43,0.987c0.11,0.247,0.219,0.493,0.332,0.738c0.152,0.329,0.309,0.656,0.467,0.983
	c0.116,0.239,0.231,0.479,0.35,0.717c0.165,0.329,0.335,0.656,0.506,0.982c0.121,0.23,0.24,0.461,0.363,0.69
	c0.18,0.333,0.365,0.662,0.552,0.991c0.123,0.217,0.243,0.435,0.368,0.651c0.198,0.341,0.403,0.677,0.607,1.014
	c0.122,0.2,0.241,0.402,0.365,0.6c0.221,0.354,0.449,0.703,0.677,1.052c0.116,0.177,0.228,0.356,0.346,0.532
	c0.259,0.386,0.525,0.768,0.792,1.148c0.094,0.134,0.184,0.269,0.279,0.402c0.349,0.488,0.707,0.972,1.071,1.45
	c0.017,0.022,0.033,0.046,0.051,0.068c0.772,1.011,1.578,1.997,2.415,2.959c0.1,0.115,0.204,0.226,0.305,0.34
	c0.317,0.359,0.635,0.716,0.961,1.067c0.14,0.151,0.284,0.297,0.426,0.447c0.293,0.309,0.586,0.618,0.886,0.921
	c0.164,0.166,0.332,0.327,0.498,0.491c0.284,0.281,0.569,0.562,0.859,0.837c0.18,0.171,0.365,0.338,0.548,0.507
	c0.283,0.262,0.566,0.523,0.854,0.78c0.193,0.171,0.389,0.339,0.584,0.508c0.286,0.247,0.572,0.494,0.862,0.737
	c0.203,0.169,0.409,0.335,0.615,0.502c0.289,0.235,0.579,0.468,0.873,0.698c0.213,0.167,0.429,0.33,0.645,0.494
	c0.293,0.222,0.587,0.443,0.885,0.661c0.223,0.163,0.448,0.323,0.674,0.483c0.297,0.211,0.596,0.419,0.898,0.625
	c0.231,0.158,0.465,0.313,0.698,0.468c0.156,0.103,0.313,0.203,0.47,0.304c0.156-0.101,0.314-0.201,0.47-0.304
	c0.234-0.155,0.467-0.31,0.698-0.468c0.302-0.205,0.601-0.414,0.898-0.625c0.226-0.16,0.451-0.32,0.674-0.483
	c0.298-0.217,0.592-0.438,0.885-0.661c0.216-0.164,0.432-0.327,0.645-0.494c0.294-0.229,0.584-0.463,0.873-0.698
	c0.206-0.167,0.412-0.333,0.615-0.502c0.291-0.242,0.577-0.489,0.862-0.737c0.195-0.169,0.392-0.337,0.584-0.508
	c0.288-0.257,0.571-0.518,0.854-0.78c0.183-0.169,0.367-0.336,0.548-0.507c0.29-0.275,0.575-0.556,0.859-0.837
	c0.166-0.164,0.334-0.325,0.498-0.491c0.3-0.303,0.593-0.612,0.886-0.921c0.141-0.149,0.286-0.296,0.426-0.447
	c0.326-0.351,0.644-0.709,0.961-1.067c0.101-0.114,0.205-0.225,0.305-0.34c0.837-0.961,1.643-1.948,2.415-2.959
	c0.017-0.022,0.033-0.046,0.051-0.068c0.364-0.478,0.722-0.961,1.071-1.45c0.095-0.133,0.185-0.269,0.279-0.402
	c0.267-0.38,0.534-0.762,0.792-1.148c0.118-0.176,0.23-0.355,0.346-0.532c0.228-0.349,0.456-0.698,0.677-1.052
	c0.124-0.199,0.243-0.4,0.365-0.6c0.205-0.337,0.409-0.673,0.607-1.014c0.125-0.216,0.246-0.434,0.368-0.651
	c0.186-0.329,0.372-0.659,0.552-0.991c0.124-0.229,0.243-0.46,0.363-0.69c0.171-0.326,0.341-0.653,0.506-0.982
	c0.119-0.238,0.234-0.478,0.35-0.717c0.158-0.326,0.315-0.653,0.467-0.983c0.113-0.245,0.223-0.492,0.333-0.738
	c0.146-0.328,0.29-0.656,0.43-0.987c0.107-0.253,0.211-0.506,0.314-0.76c0.134-0.328,0.265-0.657,0.393-0.988
	c0.101-0.259,0.198-0.519,0.295-0.78c0.123-0.33,0.242-0.661,0.358-0.993c0.093-0.264,0.184-0.529,0.272-0.794
	c0.112-0.333,0.22-0.667,0.326-1.002c0.084-0.268,0.168-0.536,0.249-0.806c0.101-0.335,0.197-0.672,0.292-1.009
	c0.077-0.273,0.153-0.545,0.226-0.819c0.089-0.337,0.174-0.676,0.258-1.016c0.068-0.276,0.136-0.551,0.201-0.828
	c0.079-0.342,0.152-0.685,0.226-1.028c0.059-0.277,0.119-0.555,0.174-0.833c0.068-0.347,0.131-0.696,0.193-1.044
	c0.049-0.276,0.101-0.552,0.146-0.83c0.059-0.356,0.11-0.714,0.162-1.071c0.04-0.273,0.082-0.545,0.118-0.819
	c0.048-0.366,0.088-0.734,0.129-1.102c0.03-0.267,0.063-0.533,0.09-0.801c0.038-0.386,0.067-0.773,0.097-1.16
	c0.02-0.251,0.044-0.502,0.061-0.754c0.028-0.427,0.046-0.856,0.064-1.284c0.01-0.214,0.024-0.427,0.031-0.641
	c0.021-0.643,0.032-1.287,0.032-1.932c0-0.635-0.011-1.27-0.031-1.904c-0.018-0.544-0.045-1.086-0.078-1.627
	c-0.005-0.08-0.006-0.159-0.012-0.239c-1.202-18.72-11.292-35.941-27.099-46.166C234.194,107.364,224.103,124.585,222.901,143.306z
	 M191.298,182.666c12.173,12.171,29.017,18.337,45.915,17.259c-0.084-0.072-0.163-0.15-0.247-0.223
	c-0.84-0.725-1.665-1.464-2.467-2.226c-0.093-0.088-0.183-0.18-0.276-0.269c-0.762-0.732-1.507-1.481-2.233-2.246
	c-0.105-0.111-0.213-0.219-0.317-0.33c-0.751-0.801-1.48-1.621-2.191-2.454c-0.141-0.165-0.28-0.331-0.419-0.497
	c-0.709-0.847-1.402-1.706-2.069-2.584c-0.066-0.086-0.128-0.175-0.193-0.261c-0.634-0.843-1.247-1.7-1.842-2.57
	c-0.094-0.138-0.191-0.273-0.284-0.412c-0.608-0.903-1.193-1.822-1.758-2.752c-0.112-0.184-0.222-0.369-0.332-0.554
	c-0.565-0.949-1.113-1.907-1.632-2.882c-0.042-0.079-0.081-0.159-0.123-0.238c-0.494-0.936-0.964-1.884-1.415-2.842
	c-0.078-0.165-0.158-0.328-0.234-0.493c-0.455-0.984-0.884-1.981-1.293-2.986c-0.081-0.2-0.16-0.401-0.24-0.602
	c-0.408-1.031-0.799-2.07-1.157-3.121c-0.021-0.063-0.04-0.127-0.062-0.19c-0.344-1.016-0.659-2.042-0.956-3.075
	c-0.054-0.189-0.111-0.376-0.163-0.565c-0.291-1.046-0.556-2.1-0.798-3.161c-0.048-0.211-0.093-0.424-0.139-0.636
	c-0.239-1.095-0.46-2.195-0.645-3.303c-0.007-0.039-0.011-0.077-0.018-0.116c-0.18-1.085-0.328-2.178-0.456-3.275
	c-0.024-0.207-0.051-0.413-0.073-0.619c-0.117-1.09-0.208-2.185-0.274-3.285c-0.013-0.215-0.022-0.431-0.032-0.646
	c-0.057-1.142-0.096-2.287-0.096-3.437c0-1.043,0.032-2.081,0.08-3.117c0.013-0.285,0.027-0.569,0.043-0.853
	c0.057-0.978,0.126-1.954,0.224-2.925c0.032-0.327,0.078-0.652,0.115-0.978c0.073-0.629,0.152-1.257,0.241-1.882
	c0.073-0.515,0.149-1.03,0.233-1.543c0.048-0.285,0.103-0.568,0.154-0.853c0.116-0.652,0.219-1.306,0.353-1.954
	c-11.973-5.932-25.857-7.668-38.987-4.861C171.026,147.744,177.045,168.412,191.298,182.666z M86.048,483.726c2.762,0,5-2.239,5-5
	V346.417c0-23.054,18.756-41.81,41.811-41.81h61.116v18.822c0,2.761,2.238,5,5,5s5-2.239,5-5v-23.822c0-2.761-2.238-5-5-5h-66.116
	c-28.568,0-51.811,23.242-51.811,51.81v132.309C81.048,481.487,83.286,483.726,86.048,483.726z M301.025,294.606
	c-2.762,0-5,2.239-5,5v23.822c0,2.761,2.238,5,5,5s5-2.239,5-5v-18.822h61.116c23.055,0,41.811,18.756,41.811,41.81v132.309
	c0,2.761,2.238,5,5,5s5-2.239,5-5V346.417c0-28.568-23.242-51.81-51.811-51.81H301.025z M147.409,350.614v128.111
	c0,2.761,2.238,5,5,5s5-2.239,5-5V350.614c0-2.761-2.238-5-5-5S147.409,347.853,147.409,350.614z M342.591,350.614v128.111
	c0,2.761,2.238,5,5,5s5-2.239,5-5V350.614c0-2.761-2.238-5-5-5S342.591,347.853,342.591,350.614z M268.797,445.459l3.756,3.755
	c0.977,0.977,2.256,1.464,3.535,1.464s2.56-0.488,3.536-1.465c1.952-1.953,1.952-5.119-0.001-7.071l-3.755-3.755
	c-1.196-1.197-1.855-2.787-1.855-4.479v-25.051c0-7.999-6.508-14.506-14.507-14.506c-1.574,0-3.085,0.265-4.506,0.731v-36.886
	c0-0.314-0.037-0.618-0.092-0.916c0.055-0.298,0.092-0.602,0.092-0.916v-2.771c0-2.761-2.238-5-5-5s-5,2.239-5,5v2.771
	c0,0.314,0.037,0.618,0.092,0.916c-0.055,0.298-0.092,0.602-0.092,0.916v36.886c-1.421-0.466-2.931-0.731-4.506-0.731
	c-7.999,0-14.507,6.507-14.507,14.506v25.051c0,1.691-0.659,3.282-1.854,4.478l-3.756,3.755c-1.953,1.952-1.953,5.118-0.001,7.071
	c1.953,1.953,5.118,1.953,7.071,0l3.757-3.756c3.084-3.085,4.783-7.187,4.783-11.549v-25.051c0-2.485,2.021-4.506,4.507-4.506
	c2.484,0,4.506,2.021,4.506,4.506v59.367c0,2.761,2.238,5,5,5s5-2.239,5-5v-59.367c0-2.485,2.021-4.506,4.506-4.506
	c2.485,0,4.507,2.021,4.507,4.506v25.051C264.013,438.272,265.712,442.374,268.797,445.459z M288.272,459.311
	c-0.924,3.104-1.178,6.321-0.755,9.561c0.325,2.491,2.446,4.354,4.958,4.354h23.274c2.762,0,5-2.239,5-5s-2.238-5-5-5h-18.161
	c0.074-0.357,0.163-0.711,0.268-1.063l2.043-6.865c5.983-20.123,4.665-41.805-3.714-61.052l-25.211-57.913
	c-2.793-6.414-9.117-10.558-16.112-10.558h-9.725c-6.995,0-13.319,4.145-16.111,10.559l-25.211,57.912
	c-8.38,19.247-9.698,40.929-3.714,61.052l2.042,6.865c0.104,0.352,0.193,0.706,0.268,1.063H184.25c-2.762,0-5,2.239-5,5s2.238,5,5,5
	h23.274c2.512,0,4.633-1.863,4.958-4.354c0.423-3.24,0.169-6.458-0.755-9.561l-2.041-6.864c-5.313-17.867-4.143-37.12,3.297-54.21
	l25.212-57.912c1.203-2.764,3.928-4.55,6.942-4.55h9.725c3.015,0,5.74,1.787,6.944,4.55l25.21,57.912
	c7.439,17.09,8.61,36.343,3.298,54.209L288.272,459.311z M446.143,490H53.857c-2.762,0-5,2.239-5,5s2.238,5,5,5h392.285
	c2.762,0,5-2.239,5-5S448.904,490,446.143,490z M35.858,490h-3.346c-2.762,0-5,2.239-5,5s2.238,5,5,5h3.346c2.762,0,5-2.239,5-5
	S38.62,490,35.858,490z M467.487,490h-3.346c-2.762,0-5,2.239-5,5s2.238,5,5,5h3.346c2.762,0,5-2.239,5-5S470.249,490,467.487,490z"
	/>
</svg>
