<?xml version="1.0" encoding="utf-8"?>
<!-- Generator: Adobe Illustrator 22.0.0, SVG Export Plug-In . SVG Version: 6.00 Build 0)  -->
<svg version="1.1" id="Layer_1" xmlns="http://www.w3.org/2000/svg" xmlns:xlink="http://www.w3.org/1999/xlink" x="0px" y="0px"
	 viewBox="0 0 500 500" style="enable-background:new 0 0 500 500;" xml:space="preserve">
<style type="text/css">
	.st0{fill:#AAB1BA;}
	.st1{fill:#FDDF7F;}
	.st2{fill:#83E1E5;}
	.st3{fill:#1C1D21;}
</style>
<g>
	<circle class="st0" cx="249.999" cy="408.895" r="12.428"/>
</g>
<g>
	<circle class="st1" cx="250" cy="159.407" r="64.688"/>
</g>
<g>
	<path class="st0" d="M250,94.719c-35.726,0-64.688,28.962-64.688,64.688h129.375C314.688,123.681,285.726,94.719,250,94.719z"/>
</g>
<g>
	<circle class="st0" cx="250" cy="72.59" r="22.13"/>
</g>
<g>
	<path class="st2" d="M302.457,312.775H197.543c-14.06,0-25.458-11.398-25.458-25.458v-63.222h155.831v63.222
		C327.915,301.377,316.517,312.775,302.457,312.775z"/>
</g>
<g>
	<path class="st1" d="M283.522,263.469h-67.043c-11.842,0-21.442-9.6-21.442-21.442v-17.932h109.927v17.932
		C304.964,253.869,295.364,263.469,283.522,263.469z"/>
</g>
<g>
	<path class="st0" d="M175.207,418.323h-49.885c-19.756,0-35.771,16.015-35.771,35.771v5.135c0,19.755,16.015,35.771,35.771,35.771
		h78.608v-50.691C192.613,437.762,182.822,428.885,175.207,418.323z"/>
</g>
<g>
	<path class="st0" d="M374.677,418.323h-49.885c-7.615,10.562-17.406,19.439-28.724,25.986V495h78.608
		c19.756,0,35.771-16.015,35.771-35.771v-5.135C410.448,434.339,394.433,418.323,374.677,418.323z"/>
</g>
<g>
	<path class="st1" d="M454.445,326.034c-0.604-6.666-6.488-11.62-13.182-11.62h-73.052c-5.45,0-9.868-4.418-9.868-9.868v-54.108
		c0-14.55-11.795-26.345-26.345-26.345h-4.084v63.222c0,13.48-10.486,24.485-23.741,25.372c-0.565,0.049-1.134,0.086-1.712,0.087
		c-0.002,0-0.003,0-0.005,0H197.543c-0.002,0-0.003,0-0.005,0c-0.578,0-1.147-0.038-1.712-0.087
		c-13.256-0.887-23.741-11.891-23.741-25.372v-63.222h-4.084c-14.55,0-26.345,11.795-26.345,26.345v54.108
		c0,5.45-4.418,9.868-9.868,9.868H58.736c-6.694,0-12.578,4.954-13.182,11.62c-0.686,7.575,5.23,13.952,12.663,14.008l30.376,0.153
		c12.289,0.045,24.465,2.351,35.919,6.806l33.434,13.002c0-0.007,0.001-0.013,0.001-0.019c-0.072,1.495-0.115,2.998-0.115,4.51
		c0,34.121,18.543,63.909,46.099,79.843V495h92.139v-50.665c27.555-15.935,46.096-45.722,46.096-79.841
		c0-1.513-0.043-3.015-0.115-4.51c0,0.007,0.001,0.013,0.001,0.019l33.434-13.002c11.454-4.454,23.63-6.761,35.919-6.806
		l30.376-0.153C449.216,339.986,455.131,333.609,454.445,326.034z M250,456.662c-0.078,0-0.156-0.004-0.234-0.004
		C249.844,456.658,249.921,456.661,250,456.662c0.08-0.001,0.16-0.004,0.24-0.004C250.16,456.658,250.08,456.662,250,456.662z"/>
</g>
<path class="st3" d="M234.167,15.833c0-2.762,2.239-5,5-5H245V5c0-2.762,2.239-5,5-5s5,2.238,5,5v5.833h5.833c2.761,0,5,2.238,5,5
	s-2.239,5-5,5H255v5.833c0,2.762-2.239,5-5,5s-5-2.238-5-5v-5.833h-5.833C236.406,20.833,234.167,18.595,234.167,15.833z
	 M63.777,410.701c-2.761,0-5,2.238-5,5v5.975h-5.975c-2.761,0-5,2.238-5,5s2.239,5,5,5h5.975v5.975c0,2.762,2.239,5,5,5s5-2.238,5-5
	v-5.975h5.974c2.761,0,5-2.238,5-5s-2.239-5-5-5h-5.974v-5.975C68.777,412.939,66.539,410.701,63.777,410.701z M436.223,442.65
	c2.761,0,5-2.238,5-5v-5.975h5.975c2.761,0,5-2.238,5-5s-2.239-5-5-5h-5.975V415.7c0-2.762-2.239-5-5-5s-5,2.238-5,5v5.975h-5.974
	c-2.761,0-5,2.238-5,5s2.239,5,5,5h5.974v5.975C431.223,440.412,433.461,442.65,436.223,442.65z M232.572,408.896
	c0-9.609,7.818-17.428,17.428-17.428c9.61,0,17.428,7.818,17.428,17.428S259.61,426.324,250,426.324
	S232.572,418.505,232.572,408.896z M242.572,408.896c0,4.096,3.332,7.428,7.428,7.428s7.428-3.332,7.428-7.428
	s-3.332-7.428-7.428-7.428S242.572,404.8,242.572,408.896z M13.167,490H5c-2.761,0-5,2.238-5,5s2.239,5,5,5h8.167
	c2.761,0,5-2.238,5-5S15.928,490,13.167,490z M471.417,495c0,2.762-2.239,5-5,5h-91.739h-16.469H141.792h-16.469h-91.74
	c-2.761,0-5-2.238-5-5s2.239-5,5-5H98.62c-8.609-7.481-14.069-18.497-14.069-30.771v-5.136c0-22.48,18.29-40.771,40.771-40.771
	h40.699c-8.38-14.356-13.189-31.041-13.189-48.829c0-0.369,0.02-0.736,0.024-1.104L122.7,351.661
	c-10.923-4.249-22.404-6.424-34.125-6.466l-30.383-0.153c-4.979-0.038-9.741-2.171-13.078-5.852
	c-3.335-3.679-4.989-8.639-4.539-13.608c0.821-9.066,8.798-16.168,18.161-16.168h9.286c-1.07-2.257-1.687-4.77-1.687-7.43
	c0-9.609,7.818-17.428,17.428-17.428s17.428,7.818,17.428,17.428c0,2.66-0.616,5.172-1.687,7.43h32.284
	c2.684,0,4.868-2.184,4.868-4.868v-54.107c0-17.283,14.061-31.345,31.345-31.345h4.083h22.952h19.034
	c-20.214-12.213-33.759-34.397-33.759-59.688c0-31.969,21.646-58.96,51.045-67.135c-5.221-4.948-8.488-11.939-8.488-19.683
	c0-14.96,12.17-27.13,27.13-27.13s27.13,12.17,27.13,27.13c0,7.744-3.266,14.735-8.488,19.683
	c29.399,8.175,51.045,35.166,51.045,67.135c0,25.291-13.545,47.474-33.759,59.688h19.034h22.952h4.083
	c17.284,0,31.345,14.062,31.345,31.345v54.107c0,2.685,2.184,4.868,4.868,4.868h32.284c-1.07-2.257-1.687-4.77-1.687-7.43
	c0-9.609,7.818-17.428,17.428-17.428s17.428,7.818,17.428,17.428c0,2.66-0.616,5.172-1.687,7.43h9.286
	c9.363,0,17.34,7.102,18.161,16.168c0.45,4.97-1.204,9.93-4.539,13.608c-3.337,3.681-8.099,5.813-13.065,5.852l-30.389,0.153
	c-11.729,0.042-23.21,2.217-34.132,6.466l-30.157,11.728c0.004,0.369,0.024,0.736,0.024,1.104c0,17.788-4.809,34.473-13.189,48.829
	h40.699c22.481,0,40.771,18.29,40.771,40.771v5.136c0,12.274-5.46,23.29-14.069,30.771h65.037
	C469.178,490,471.417,492.238,471.417,495z M408.809,301.985c0,4.096,3.332,7.428,7.428,7.428s7.428-3.332,7.428-7.428
	s-3.332-7.428-7.428-7.428S408.809,297.89,408.809,301.985z M327.028,305.287c10.657,13.858,17.346,30.358,19.426,47.641
	l27.221-10.586c12.071-4.695,24.76-7.1,37.713-7.146l30.369-0.153c2.198-0.017,4.233-0.929,5.72-2.568
	c1.484-1.637,2.19-3.764,1.989-5.989c-0.359-3.965-3.962-7.07-8.202-7.07h-73.052c-8.198,0-14.868-6.67-14.868-14.868v-54.107
	c0-11.46-9.085-20.813-20.428-21.298v58.175C332.916,294.033,330.726,300.246,327.028,305.287z M232.87,72.59
	c0,9.445,7.685,17.13,17.13,17.13s17.13-7.685,17.13-17.13S259.445,55.46,250,55.46S232.87,63.145,232.87,72.59z M190.538,154.407
	H245v-21.523c0-2.762,2.239-5,5-5s5,2.238,5,5v21.523h54.462C306.912,123.828,281.226,99.72,250,99.72
	S193.088,123.828,190.538,154.407z M250,219.095c31.226,0,56.912-24.108,59.462-54.688H190.538
	C193.088,194.986,218.774,219.095,250,219.095z M200.037,242.026c0,9.066,7.376,16.442,16.442,16.442h67.043
	c9.066,0,16.442-7.376,16.442-16.442v-12.932h-99.927L200.037,242.026L200.037,242.026z M76.335,301.985
	c0,4.096,3.332,7.428,7.428,7.428s7.428-3.332,7.428-7.428s-3.332-7.428-7.428-7.428S76.335,297.89,76.335,301.985z
	 M153.545,352.927c2.081-17.282,8.77-33.782,19.426-47.64c-3.697-5.041-5.887-11.254-5.887-17.971v-9.676c0-2.762,2.239-5,5-5
	s5,2.238,5,5v9.676c0,5.632,2.289,10.74,5.984,14.443c0.114,0.114,0.238,0.213,0.354,0.324c3.146,3.009,7.24,5.029,11.791,5.548
	c0.084,0.009,0.167,0.029,0.251,0.037c0.684,0.069,1.377,0.105,2.078,0.105H245v-23.568c0-2.762,2.239-5,5-5s5,2.238,5,5v23.568
	h47.457c0.702,0,1.395-0.036,2.078-0.105c0.085-0.009,0.167-0.028,0.251-0.037c4.55-0.519,8.644-2.539,11.791-5.548
	c0.116-0.111,0.24-0.21,0.354-0.324c3.696-3.703,5.984-8.811,5.984-14.443v-58.222h-12.952v12.932
	c0,14.58-11.862,26.442-26.442,26.442h-67.043c-14.58,0-26.442-11.862-26.442-26.442v-12.932h-12.952v12.53c0,2.762-2.239,5-5,5
	s-5-2.238-5-5V229.14c-11.343,0.485-20.428,9.838-20.428,21.298v54.107c0,8.198-6.669,14.868-14.868,14.868H58.736
	c-4.24,0-7.843,3.105-8.202,7.07c-0.202,2.226,0.505,4.353,1.989,5.989c1.486,1.64,3.522,2.552,5.732,2.568l30.363,0.153
	c12.946,0.046,25.635,2.45,37.707,7.146L153.545,352.927z M188.337,426.046c0.055,0.055,0.11,0.109,0.165,0.164
	c0.446,0.444,0.895,0.884,1.35,1.319c0.131,0.125,0.264,0.246,0.396,0.37c0.483,0.455,0.97,0.905,1.463,1.349
	c0.495,0.444,0.992,0.886,1.496,1.318c0.096,0.083,0.195,0.164,0.291,0.246c0.584,0.497,1.173,0.988,1.769,1.469
	c0.005,0.004,0.01,0.008,0.016,0.012c13.956,11.244,31.181,18.05,49.276,19.193c0.125,0.008,0.25,0.017,0.375,0.024
	c0.684,0.04,1.37,0.069,2.056,0.093c0.174,0.006,0.348,0.015,0.522,0.02c0.828,0.024,1.657,0.038,2.488,0.038
	s1.66-0.014,2.488-0.038c0.174-0.005,0.348-0.014,0.522-0.02c0.686-0.024,1.372-0.053,2.056-0.093
	c0.125-0.007,0.25-0.016,0.375-0.024c18.095-1.143,35.319-7.949,49.276-19.193c0.005-0.004,0.01-0.008,0.016-0.012
	c0.596-0.481,1.185-0.972,1.769-1.469c0.097-0.083,0.195-0.163,0.291-0.246c0.504-0.432,1.001-0.874,1.496-1.318
	c0.493-0.444,0.98-0.894,1.463-1.349c0.132-0.124,0.265-0.246,0.396-0.37c0.455-0.435,0.905-0.875,1.35-1.319
	c0.055-0.055,0.11-0.109,0.165-0.164c15.751-15.78,25.505-37.548,25.505-61.552c0-18.814-6.125-37.146-17.34-52.154
	c-0.862,0.602-1.76,1.137-2.673,1.643c-0.147,0.081-0.295,0.16-0.444,0.239c-0.702,0.374-1.417,0.719-2.146,1.036
	c-0.102,0.044-0.202,0.092-0.304,0.135c-0.373,0.157-0.748,0.303-1.127,0.445c-0.23,0.086-0.463,0.167-0.696,0.248
	c-0.509,0.177-1.022,0.341-1.541,0.49c-0.359,0.104-0.72,0.205-1.085,0.296c-0.286,0.07-0.572,0.137-0.86,0.199
	c-0.489,0.107-0.982,0.201-1.479,0.284c-0.192,0.032-0.383,0.065-0.576,0.093c-0.595,0.087-1.196,0.153-1.802,0.205
	c-0.19,0.016-0.379,0.031-0.57,0.043c-0.684,0.046-1.371,0.078-2.067,0.078H197.543c-0.695,0-1.383-0.032-2.067-0.078
	c-0.191-0.013-0.38-0.027-0.57-0.043c-0.605-0.052-1.207-0.118-1.802-0.205c-0.193-0.028-0.384-0.062-0.576-0.093
	c-0.497-0.083-0.99-0.177-1.479-0.284c-0.288-0.062-0.575-0.129-0.86-0.199c-0.365-0.091-0.726-0.192-1.085-0.296
	c-0.519-0.149-1.032-0.313-1.541-0.49c-0.233-0.081-0.466-0.162-0.696-0.248c-0.379-0.142-0.754-0.288-1.127-0.445
	c-0.103-0.043-0.203-0.091-0.304-0.135c-0.729-0.316-1.444-0.662-2.146-1.036c-0.148-0.079-0.297-0.158-0.444-0.239
	c-0.913-0.506-1.811-1.042-2.673-1.643c-11.215,15.008-17.34,33.34-17.34,52.154C162.833,388.498,172.586,410.266,188.337,426.046z
	 M405.448,459.229v-5.136c0-16.967-13.804-30.771-30.771-30.771H327.31c-3.13,4.106-6.569,7.919-10.259,11.433
	c-0.035,0.033-0.07,0.066-0.105,0.1c-0.509,0.483-1.021,0.963-1.54,1.434c-0.164,0.15-0.331,0.297-0.496,0.445
	c-0.419,0.376-0.838,0.753-1.263,1.121c-15.672,13.614-35.733,22.296-57.745,23.621c-0.124,0.008-0.249,0.017-0.373,0.024
	c-0.75,0.042-1.503,0.074-2.257,0.1c-0.184,0.006-0.367,0.016-0.551,0.021c-0.904,0.025-1.81,0.04-2.72,0.04s-1.816-0.015-2.72-0.04
	c-0.184-0.005-0.367-0.015-0.551-0.021c-0.754-0.025-1.507-0.057-2.257-0.1c-0.125-0.007-0.249-0.016-0.373-0.024
	c-22.013-1.325-42.074-10.007-57.745-23.621c-0.425-0.368-0.844-0.745-1.263-1.121c-0.165-0.149-0.332-0.296-0.496-0.445
	c-0.519-0.471-1.031-0.951-1.54-1.434c-0.035-0.033-0.07-0.066-0.105-0.1c-3.69-3.514-7.129-7.328-10.259-11.433h-47.368
	c-16.967,0-30.771,13.804-30.771,30.771v5.136c0,16.967,13.804,30.771,30.771,30.771h16.469h57.139v-24.294c0-2.762,2.239-5,5-5
	s5,2.238,5,5V490h82.139v-24.294c0-2.762,2.239-5,5-5s5,2.238,5,5V490h57.139h16.469C391.645,490,405.448,476.196,405.448,459.229z
	 M495,490h-8.167c-2.761,0-5,2.238-5,5s2.239,5,5,5H495c2.761,0,5-2.238,5-5S497.761,490,495,490z M172.084,265.561
	c2.761,0,5-2.238,5-5v-2.611c0-2.762-2.239-5-5-5s-5,2.238-5,5v2.611C167.084,263.322,169.323,265.561,172.084,265.561z"/>
</svg>
